<svg xmlns="http://www.w3.org/2000/svg" xmlns:xlink="http://www.w3.org/1999/xlink" width="500" zoomAndPan="magnify" viewBox="0 0 375 374.999991" height="500" preserveAspectRatio="xMidYMid meet" version="1.0"><defs><g/><clipPath id="d99ad69425"><path d="M 33.214844 139.5 L 341.785156 139.5 L 341.785156 229.847656 L 33.214844 229.847656 Z M 33.214844 139.5 " clip-rule="nonzero"/></clipPath></defs><g clip-path="url(#d99ad69425)"><path fill="#000000" d="M 33.214844 139.5 L 341.667969 139.5 L 341.667969 229.847656 L 33.214844 229.847656 Z M 33.214844 139.5 " fill-opacity="1" fill-rule="nonzero"/></g><g fill="#ffffff" fill-opacity="1"><g transform="translate(72.856065, 198.749987)"><g><path d="M 25.125 -0.484375 C 25.175781 -0.367188 25.160156 -0.257812 25.078125 -0.15625 C 24.992188 -0.0507812 24.890625 0 24.765625 0 L 19.234375 0 C 19.046875 0 18.925781 -0.078125 18.875 -0.234375 L 12.5625 -18.078125 L 6.3125 -0.234375 C 6.289062 -0.078125 6.160156 0 5.921875 0 L 0.4375 0 C 0.25 0 0.117188 -0.0507812 0.046875 -0.15625 C -0.015625 -0.257812 -0.015625 -0.367188 0.046875 -0.484375 L 12.15625 -31.765625 C 12.207031 -31.921875 12.335938 -32 12.546875 -32 C 12.765625 -32 12.898438 -31.921875 12.953125 -31.765625 Z M 25.125 -0.484375 "/></g></g></g><g fill="#ffffff" fill-opacity="1"><g transform="translate(103.653436, 198.749987)"><g><path d="M 21.84375 -0.515625 C 21.894531 -0.378906 21.882812 -0.257812 21.8125 -0.15625 C 21.75 -0.0507812 21.640625 0 21.484375 0 L 15.765625 0 C 15.546875 0 15.410156 -0.078125 15.359375 -0.234375 L 9.515625 -12.921875 L 6.078125 -12.921875 L 6.078125 -0.359375 C 6.078125 -0.117188 5.929688 0 5.640625 0 L 0.40625 0 C 0.132812 0 0 -0.117188 0 -0.359375 L 0 -18.796875 L 10.765625 -18.796875 C 11.078125 -18.796875 11.5 -18.820312 12.03125 -18.875 C 12.570312 -18.925781 13.101562 -19.070312 13.625 -19.3125 C 14.144531 -19.5625 14.582031 -19.929688 14.9375 -20.421875 C 15.300781 -20.910156 15.484375 -21.597656 15.484375 -22.484375 C 15.484375 -23.359375 15.285156 -24.046875 14.890625 -24.546875 C 14.503906 -25.054688 14.03125 -25.425781 13.46875 -25.65625 C 12.914062 -25.882812 12.382812 -26.03125 11.875 -26.09375 C 11.375 -26.164062 11.003906 -26.203125 10.765625 -26.203125 L 0 -26.203125 L 0 -31.640625 C 0 -31.878906 0.132812 -32 0.40625 -32 L 10.765625 -32 C 11.128906 -32 11.722656 -31.960938 12.546875 -31.890625 C 13.378906 -31.828125 14.304688 -31.648438 15.328125 -31.359375 C 16.359375 -31.066406 17.347656 -30.585938 18.296875 -29.921875 C 19.242188 -29.253906 20.023438 -28.316406 20.640625 -27.109375 C 21.253906 -25.910156 21.5625 -24.367188 21.5625 -22.484375 C 21.5625 -20.859375 21.289062 -19.476562 20.75 -18.34375 C 20.21875 -17.207031 19.503906 -16.28125 18.609375 -15.5625 C 17.722656 -14.84375 16.75 -14.28125 15.6875 -13.875 C 16.695312 -11.613281 17.726562 -9.375 18.78125 -7.15625 C 19.832031 -4.945312 20.851562 -2.734375 21.84375 -0.515625 Z M 21.84375 -0.515625 "/></g></g></g><g fill="#ffffff" fill-opacity="1"><g transform="translate(131.051145, 198.749987)"><g><path d="M 25.515625 -0.59375 C 25.648438 -0.4375 25.675781 -0.296875 25.59375 -0.171875 C 25.519531 -0.0546875 25.375 0 25.15625 0 L 18.28125 0 C 18.125 0 18.003906 -0.0390625 17.921875 -0.125 L 8.59375 -11.640625 C 8.46875 -11.503906 8.171875 -11.175781 7.703125 -10.65625 C 7.234375 -10.132812 6.671875 -9.507812 6.015625 -8.78125 C 5.367188 -8.050781 4.695312 -7.289062 4 -6.5 C 3.300781 -5.707031 2.644531 -4.960938 2.03125 -4.265625 C 1.425781 -3.578125 0.9375 -3.019531 0.5625 -2.59375 C 0.1875 -2.164062 0 -1.953125 0 -1.953125 L 0 -31.640625 C 0 -31.878906 0.144531 -32 0.4375 -32 L 5.71875 -32 C 5.988281 -32 6.125 -31.878906 6.125 -31.640625 L 6.125 -17.078125 L 18.15625 -31.875 C 18.238281 -31.957031 18.359375 -32 18.515625 -32 L 25.046875 -32 C 25.253906 -32 25.394531 -31.929688 25.46875 -31.796875 C 25.550781 -31.660156 25.53125 -31.53125 25.40625 -31.40625 L 12.6875 -15.71875 Z M 25.515625 -0.59375 "/></g></g></g><g fill="#ffffff" fill-opacity="1"><g transform="translate(162.368467, 198.749987)"><g><path d="M 6.59375 -20.40625 L 12.6875 -20.40625 L 12.6875 -0.359375 C 12.6875 -0.117188 12.523438 0 12.203125 0 L 7.046875 0 C 6.742188 0 6.59375 -0.117188 6.59375 -0.359375 Z M 0.4375 -26.515625 C 0.144531 -26.515625 0 -26.632812 0 -26.875 L 0 -31.640625 C 0 -31.878906 0.144531 -32 0.4375 -32 L 18.796875 -32 C 19.085938 -32 19.234375 -31.878906 19.234375 -31.640625 L 19.234375 -26.875 C 19.234375 -26.632812 19.085938 -26.515625 18.796875 -26.515625 Z M 0.4375 -26.515625 "/></g></g></g><g fill="#ffffff" fill-opacity="1"><g transform="translate(186.966459, 198.749987)"><g><path d="M 21.84375 -0.515625 C 21.894531 -0.378906 21.882812 -0.257812 21.8125 -0.15625 C 21.75 -0.0507812 21.640625 0 21.484375 0 L 15.765625 0 C 15.546875 0 15.410156 -0.078125 15.359375 -0.234375 L 9.515625 -12.921875 L 6.078125 -12.921875 L 6.078125 -0.359375 C 6.078125 -0.117188 5.929688 0 5.640625 0 L 0.40625 0 C 0.132812 0 0 -0.117188 0 -0.359375 L 0 -18.796875 L 10.765625 -18.796875 C 11.078125 -18.796875 11.5 -18.820312 12.03125 -18.875 C 12.570312 -18.925781 13.101562 -19.070312 13.625 -19.3125 C 14.144531 -19.5625 14.582031 -19.929688 14.9375 -20.421875 C 15.300781 -20.910156 15.484375 -21.597656 15.484375 -22.484375 C 15.484375 -23.359375 15.285156 -24.046875 14.890625 -24.546875 C 14.503906 -25.054688 14.03125 -25.425781 13.46875 -25.65625 C 12.914062 -25.882812 12.382812 -26.03125 11.875 -26.09375 C 11.375 -26.164062 11.003906 -26.203125 10.765625 -26.203125 L 0 -26.203125 L 0 -31.640625 C 0 -31.878906 0.132812 -32 0.40625 -32 L 10.765625 -32 C 11.128906 -32 11.722656 -31.960938 12.546875 -31.890625 C 13.378906 -31.828125 14.304688 -31.648438 15.328125 -31.359375 C 16.359375 -31.066406 17.347656 -30.585938 18.296875 -29.921875 C 19.242188 -29.253906 20.023438 -28.316406 20.640625 -27.109375 C 21.253906 -25.910156 21.5625 -24.367188 21.5625 -22.484375 C 21.5625 -20.859375 21.289062 -19.476562 20.75 -18.34375 C 20.21875 -17.207031 19.503906 -16.28125 18.609375 -15.5625 C 17.722656 -14.84375 16.75 -14.28125 15.6875 -13.875 C 16.695312 -11.613281 17.726562 -9.375 18.78125 -7.15625 C 19.832031 -4.945312 20.851562 -2.734375 21.84375 -0.515625 Z M 21.84375 -0.515625 "/></g></g></g><g fill="#ffffff" fill-opacity="1"><g transform="translate(214.364174, 198.749987)"><g><path d="M 25.125 -0.484375 C 25.175781 -0.367188 25.160156 -0.257812 25.078125 -0.15625 C 24.992188 -0.0507812 24.890625 0 24.765625 0 L 19.234375 0 C 19.046875 0 18.925781 -0.078125 18.875 -0.234375 L 12.5625 -18.078125 L 6.3125 -0.234375 C 6.289062 -0.078125 6.160156 0 5.921875 0 L 0.4375 0 C 0.25 0 0.117188 -0.0507812 0.046875 -0.15625 C -0.015625 -0.257812 -0.015625 -0.367188 0.046875 -0.484375 L 12.15625 -31.765625 C 12.207031 -31.921875 12.335938 -32 12.546875 -32 C 12.765625 -32 12.898438 -31.921875 12.953125 -31.765625 Z M 25.125 -0.484375 "/></g></g></g><g fill="#ffffff" fill-opacity="1"><g transform="translate(245.161551, 198.749987)"><g><path d="M 18.28125 -5.875 L 24.40625 -5.875 L 24.40625 -0.359375 C 24.40625 -0.117188 24.253906 0 23.953125 0 L 18.765625 0 C 17.160156 0 15.488281 -0.117188 13.75 -0.359375 C 12.019531 -0.597656 10.34375 -1.046875 8.71875 -1.703125 C 7.09375 -2.359375 5.617188 -3.273438 4.296875 -4.453125 C 2.972656 -5.640625 1.925781 -7.171875 1.15625 -9.046875 C 0.382812 -10.929688 0 -13.25 0 -16 C 0 -18.820312 0.390625 -21.191406 1.171875 -23.109375 C 1.960938 -25.035156 3.015625 -26.582031 4.328125 -27.75 C 5.648438 -28.925781 7.128906 -29.820312 8.765625 -30.4375 C 10.410156 -31.050781 12.09375 -31.460938 13.8125 -31.671875 C 15.539062 -31.890625 17.191406 -32 18.765625 -32 L 23.953125 -32 C 24.253906 -32 24.40625 -31.878906 24.40625 -31.640625 L 24.40625 -19.078125 L 18.28125 -19.078125 L 18.28125 -26.15625 C 15.957031 -26.289062 13.878906 -26.03125 12.046875 -25.375 C 10.222656 -24.726562 8.785156 -23.632812 7.734375 -22.09375 C 6.679688 -20.5625 6.15625 -18.53125 6.15625 -16 C 6.15625 -14.03125 6.441406 -12.40625 7.015625 -11.125 C 7.585938 -9.84375 8.347656 -8.84375 9.296875 -8.125 C 10.242188 -7.40625 11.265625 -6.878906 12.359375 -6.546875 C 13.453125 -6.210938 14.519531 -6.007812 15.5625 -5.9375 C 16.601562 -5.875 17.507812 -5.851562 18.28125 -5.875 Z M 18.28125 -5.875 "/></g></g></g><g fill="#ffffff" fill-opacity="1"><g transform="translate(275.198994, 198.749987)"><g><path d="M 25.515625 -0.59375 C 25.648438 -0.4375 25.675781 -0.296875 25.59375 -0.171875 C 25.519531 -0.0546875 25.375 0 25.15625 0 L 18.28125 0 C 18.125 0 18.003906 -0.0390625 17.921875 -0.125 L 8.59375 -11.640625 C 8.46875 -11.503906 8.171875 -11.175781 7.703125 -10.65625 C 7.234375 -10.132812 6.671875 -9.507812 6.015625 -8.78125 C 5.367188 -8.050781 4.695312 -7.289062 4 -6.5 C 3.300781 -5.707031 2.644531 -4.960938 2.03125 -4.265625 C 1.425781 -3.578125 0.9375 -3.019531 0.5625 -2.59375 C 0.1875 -2.164062 0 -1.953125 0 -1.953125 L 0 -31.640625 C 0 -31.878906 0.144531 -32 0.4375 -32 L 5.71875 -32 C 5.988281 -32 6.125 -31.878906 6.125 -31.640625 L 6.125 -17.078125 L 18.15625 -31.875 C 18.238281 -31.957031 18.359375 -32 18.515625 -32 L 25.046875 -32 C 25.253906 -32 25.394531 -31.929688 25.46875 -31.796875 C 25.550781 -31.660156 25.53125 -31.53125 25.40625 -31.40625 L 12.6875 -15.71875 Z M 25.515625 -0.59375 "/></g></g></g><path stroke-linecap="butt" transform="matrix(-0.75, 0, 0, -0.75, 313.614272, 158.847822)" fill="none" stroke-linejoin="miter" d="M 0.00132087 5.000222 L 84.433618 5.000222 " stroke="#ffffff" stroke-width="10" stroke-opacity="1" stroke-miterlimit="4"/><path stroke-linecap="butt" transform="matrix(0, -0.75, 0.75, 0, 306.11811, 215.441513)" fill="none" stroke-linejoin="miter" d="M 0.000142404 4.99877 L 82.463689 4.99877 " stroke="#ffffff" stroke-width="10" stroke-opacity="1" stroke-miterlimit="4"/><path stroke-linecap="butt" transform="matrix(0.75, 0, 0, 0.75, 60.924204, 207.641838)" fill="none" stroke-linejoin="miter" d="M 0.00210233 4.998384 L 84.4344 4.998384 " stroke="#ffffff" stroke-width="10" stroke-opacity="1" stroke-miterlimit="4"/><path stroke-linecap="butt" transform="matrix(0, 0.75, -0.75, 0, 68.420354, 151.048159)" fill="none" stroke-linejoin="miter" d="M -0.00171184 4.997973 L 82.461835 4.997973 " stroke="#ffffff" stroke-width="10" stroke-opacity="1" stroke-miterlimit="4"/><g fill="#ffffff" fill-opacity="1"><g transform="translate(133.067485, 213.928428)"><g><path d="M 3.3125 -4.71875 L 4.65625 -4.71875 L 3.25 -2.734375 L 3.25 -0.0625 C 3.25 -0.0195312 3.222656 0 3.171875 0 L 2.21875 0 C 2.164062 0 2.140625 -0.0195312 2.140625 -0.0625 L 2.140625 -2.734375 C 1.785156 -3.234375 1.429688 -3.726562 1.078125 -4.21875 C 0.722656 -4.71875 0.367188 -5.21875 0.015625 -5.71875 C -0.00390625 -5.738281 -0.0078125 -5.757812 0 -5.78125 C 0.0195312 -5.8125 0.0507812 -5.828125 0.09375 -5.828125 L 1.234375 -5.828125 C 1.265625 -5.828125 1.289062 -5.816406 1.3125 -5.796875 L 2.6875 -3.859375 Z M 3.3125 -4.71875 "/></g></g></g><g fill="#ffffff" fill-opacity="1"><g transform="translate(138.760838, 213.928428)"><g><path d="M 3.34375 -2.890625 C 3.34375 -2.742188 3.289062 -2.617188 3.1875 -2.515625 C 3.082031 -2.410156 2.953125 -2.359375 2.796875 -2.359375 C 2.648438 -2.359375 2.519531 -2.410156 2.40625 -2.515625 C 2.300781 -2.617188 2.25 -2.742188 2.25 -2.890625 C 2.25 -3.046875 2.300781 -3.175781 2.40625 -3.28125 C 2.519531 -3.394531 2.648438 -3.453125 2.796875 -3.453125 C 2.953125 -3.453125 3.082031 -3.394531 3.1875 -3.28125 C 3.289062 -3.175781 3.34375 -3.046875 3.34375 -2.890625 Z M 5.609375 -2.921875 C 5.609375 -2.554688 5.546875 -2.195312 5.421875 -1.84375 C 5.304688 -1.5 5.132812 -1.1875 4.90625 -0.90625 C 4.675781 -0.632812 4.382812 -0.414062 4.03125 -0.25 C 3.6875 -0.0820312 3.28125 0 2.8125 0 C 2.34375 0 1.929688 -0.0820312 1.578125 -0.25 C 1.222656 -0.414062 0.925781 -0.632812 0.6875 -0.90625 C 0.457031 -1.1875 0.285156 -1.5 0.171875 -1.84375 C 0.0546875 -2.195312 0 -2.554688 0 -2.921875 C 0 -3.285156 0.0546875 -3.640625 0.171875 -3.984375 C 0.285156 -4.328125 0.457031 -4.632812 0.6875 -4.90625 C 0.925781 -5.1875 1.222656 -5.410156 1.578125 -5.578125 C 1.929688 -5.742188 2.34375 -5.828125 2.8125 -5.828125 C 3.28125 -5.828125 3.6875 -5.742188 4.03125 -5.578125 C 4.382812 -5.410156 4.675781 -5.1875 4.90625 -4.90625 C 5.132812 -4.632812 5.304688 -4.328125 5.421875 -3.984375 C 5.546875 -3.640625 5.609375 -3.285156 5.609375 -2.921875 Z M 4.515625 -2.890625 C 4.515625 -3.128906 4.476562 -3.363281 4.40625 -3.59375 C 4.332031 -3.820312 4.222656 -4.023438 4.078125 -4.203125 C 3.941406 -4.390625 3.765625 -4.535156 3.546875 -4.640625 C 3.335938 -4.742188 3.09375 -4.796875 2.8125 -4.796875 C 2.519531 -4.796875 2.265625 -4.742188 2.046875 -4.640625 C 1.835938 -4.535156 1.660156 -4.390625 1.515625 -4.203125 C 1.378906 -4.023438 1.273438 -3.820312 1.203125 -3.59375 C 1.128906 -3.363281 1.09375 -3.128906 1.09375 -2.890625 C 1.09375 -2.660156 1.128906 -2.429688 1.203125 -2.203125 C 1.273438 -1.984375 1.378906 -1.785156 1.515625 -1.609375 C 1.660156 -1.429688 1.835938 -1.285156 2.046875 -1.171875 C 2.265625 -1.066406 2.519531 -1.015625 2.8125 -1.015625 C 3.09375 -1.015625 3.335938 -1.066406 3.546875 -1.171875 C 3.765625 -1.285156 3.941406 -1.429688 4.078125 -1.609375 C 4.222656 -1.785156 4.332031 -1.984375 4.40625 -2.203125 C 4.476562 -2.429688 4.515625 -2.660156 4.515625 -2.890625 Z M 4.515625 -2.890625 "/></g></g></g><g fill="#ffffff" fill-opacity="1"><g transform="translate(145.444345, 213.928428)"><g><path d="M 4.296875 -5.828125 C 4.347656 -5.828125 4.375 -5.804688 4.375 -5.765625 L 4.375 -1.9375 C 4.375 -1.53125 4.273438 -1.179688 4.078125 -0.890625 C 3.890625 -0.597656 3.628906 -0.375 3.296875 -0.21875 C 2.960938 -0.0703125 2.59375 0 2.1875 0 C 1.789062 0 1.425781 -0.078125 1.09375 -0.234375 C 0.757812 -0.390625 0.492188 -0.613281 0.296875 -0.90625 C 0.0976562 -1.195312 0 -1.539062 0 -1.9375 L 0 -4.765625 L 1.09375 -4.765625 L 1.09375 -1.953125 C 1.132812 -1.660156 1.257812 -1.441406 1.46875 -1.296875 C 1.675781 -1.148438 1.914062 -1.078125 2.1875 -1.078125 C 2.375 -1.078125 2.546875 -1.109375 2.703125 -1.171875 C 2.867188 -1.234375 3.003906 -1.328125 3.109375 -1.453125 C 3.210938 -1.585938 3.265625 -1.75 3.265625 -1.9375 L 3.265625 -5.765625 C 3.265625 -5.804688 3.289062 -5.828125 3.34375 -5.828125 Z M 4.296875 -5.828125 "/></g></g></g><g fill="#ffffff" fill-opacity="1"><g transform="translate(150.83192, 213.928428)"><g><path d="M 3.96875 -0.09375 C 3.976562 -0.0703125 3.976562 -0.0507812 3.96875 -0.03125 C 3.957031 -0.0078125 3.9375 0 3.90625 0 L 2.875 0 C 2.832031 0 2.804688 -0.015625 2.796875 -0.046875 L 1.734375 -2.359375 L 1.109375 -2.359375 L 1.109375 -0.0625 C 1.109375 -0.0195312 1.082031 0 1.03125 0 L 0.078125 0 C 0.0234375 0 0 -0.0195312 0 -0.0625 L 0 -3.421875 L 1.953125 -3.421875 C 2.015625 -3.421875 2.09375 -3.425781 2.1875 -3.4375 C 2.289062 -3.445312 2.390625 -3.472656 2.484375 -3.515625 C 2.578125 -3.554688 2.65625 -3.625 2.71875 -3.71875 C 2.78125 -3.8125 2.8125 -3.9375 2.8125 -4.09375 C 2.8125 -4.25 2.773438 -4.375 2.703125 -4.46875 C 2.640625 -4.5625 2.554688 -4.628906 2.453125 -4.671875 C 2.347656 -4.710938 2.25 -4.738281 2.15625 -4.75 C 2.070312 -4.757812 2.003906 -4.765625 1.953125 -4.765625 L 0 -4.765625 L 0 -5.765625 C 0 -5.804688 0.0234375 -5.828125 0.078125 -5.828125 L 1.953125 -5.828125 C 2.023438 -5.828125 2.132812 -5.816406 2.28125 -5.796875 C 2.4375 -5.785156 2.609375 -5.753906 2.796875 -5.703125 C 2.984375 -5.648438 3.160156 -5.5625 3.328125 -5.4375 C 3.503906 -5.320312 3.644531 -5.15625 3.75 -4.9375 C 3.863281 -4.71875 3.921875 -4.4375 3.921875 -4.09375 C 3.921875 -3.789062 3.875 -3.535156 3.78125 -3.328125 C 3.6875 -3.128906 3.554688 -2.960938 3.390625 -2.828125 C 3.222656 -2.703125 3.046875 -2.601562 2.859375 -2.53125 C 3.035156 -2.113281 3.21875 -1.703125 3.40625 -1.296875 C 3.601562 -0.898438 3.789062 -0.5 3.96875 -0.09375 Z M 3.96875 -0.09375 "/></g></g></g><g fill="#ffffff" fill-opacity="1"><g transform="translate(155.819068, 213.928428)"><g/></g></g><g fill="#ffffff" fill-opacity="1"><g transform="translate(158.440043, 213.928428)"><g><path d="M 1.203125 -3.71875 L 2.3125 -3.71875 L 2.3125 -0.0625 C 2.3125 -0.0195312 2.28125 0 2.21875 0 L 1.28125 0 C 1.226562 0 1.203125 -0.0195312 1.203125 -0.0625 Z M 0.078125 -4.828125 C 0.0234375 -4.828125 0 -4.847656 0 -4.890625 L 0 -5.765625 C 0 -5.804688 0.0234375 -5.828125 0.078125 -5.828125 L 3.421875 -5.828125 C 3.472656 -5.828125 3.5 -5.804688 3.5 -5.765625 L 3.5 -4.890625 C 3.5 -4.847656 3.472656 -4.828125 3.421875 -4.828125 Z M 0.078125 -4.828125 "/></g></g></g><g fill="#ffffff" fill-opacity="1"><g transform="translate(162.917551, 213.928428)"><g><path d="M 3.96875 -0.09375 C 3.976562 -0.0703125 3.976562 -0.0507812 3.96875 -0.03125 C 3.957031 -0.0078125 3.9375 0 3.90625 0 L 2.875 0 C 2.832031 0 2.804688 -0.015625 2.796875 -0.046875 L 1.734375 -2.359375 L 1.109375 -2.359375 L 1.109375 -0.0625 C 1.109375 -0.0195312 1.082031 0 1.03125 0 L 0.078125 0 C 0.0234375 0 0 -0.0195312 0 -0.0625 L 0 -3.421875 L 1.953125 -3.421875 C 2.015625 -3.421875 2.09375 -3.425781 2.1875 -3.4375 C 2.289062 -3.445312 2.390625 -3.472656 2.484375 -3.515625 C 2.578125 -3.554688 2.65625 -3.625 2.71875 -3.71875 C 2.78125 -3.8125 2.8125 -3.9375 2.8125 -4.09375 C 2.8125 -4.25 2.773438 -4.375 2.703125 -4.46875 C 2.640625 -4.5625 2.554688 -4.628906 2.453125 -4.671875 C 2.347656 -4.710938 2.25 -4.738281 2.15625 -4.75 C 2.070312 -4.757812 2.003906 -4.765625 1.953125 -4.765625 L 0 -4.765625 L 0 -5.765625 C 0 -5.804688 0.0234375 -5.828125 0.078125 -5.828125 L 1.953125 -5.828125 C 2.023438 -5.828125 2.132812 -5.816406 2.28125 -5.796875 C 2.4375 -5.785156 2.609375 -5.753906 2.796875 -5.703125 C 2.984375 -5.648438 3.160156 -5.5625 3.328125 -5.4375 C 3.503906 -5.320312 3.644531 -5.15625 3.75 -4.9375 C 3.863281 -4.71875 3.921875 -4.4375 3.921875 -4.09375 C 3.921875 -3.789062 3.875 -3.535156 3.78125 -3.328125 C 3.6875 -3.128906 3.554688 -2.960938 3.390625 -2.828125 C 3.222656 -2.703125 3.046875 -2.601562 2.859375 -2.53125 C 3.035156 -2.113281 3.21875 -1.703125 3.40625 -1.296875 C 3.601562 -0.898438 3.789062 -0.5 3.96875 -0.09375 Z M 3.96875 -0.09375 "/></g></g></g><g fill="#ffffff" fill-opacity="1"><g transform="translate(167.904699, 213.928428)"><g><path d="M 4.296875 -5.828125 C 4.347656 -5.828125 4.375 -5.804688 4.375 -5.765625 L 4.375 -1.9375 C 4.375 -1.53125 4.273438 -1.179688 4.078125 -0.890625 C 3.890625 -0.597656 3.628906 -0.375 3.296875 -0.21875 C 2.960938 -0.0703125 2.59375 0 2.1875 0 C 1.789062 0 1.425781 -0.078125 1.09375 -0.234375 C 0.757812 -0.390625 0.492188 -0.613281 0.296875 -0.90625 C 0.0976562 -1.195312 0 -1.539062 0 -1.9375 L 0 -4.765625 L 1.09375 -4.765625 L 1.09375 -1.953125 C 1.132812 -1.660156 1.257812 -1.441406 1.46875 -1.296875 C 1.675781 -1.148438 1.914062 -1.078125 2.1875 -1.078125 C 2.375 -1.078125 2.546875 -1.109375 2.703125 -1.171875 C 2.867188 -1.234375 3.003906 -1.328125 3.109375 -1.453125 C 3.210938 -1.585938 3.265625 -1.75 3.265625 -1.9375 L 3.265625 -5.765625 C 3.265625 -5.804688 3.289062 -5.828125 3.34375 -5.828125 Z M 4.296875 -5.828125 "/></g></g></g><g fill="#ffffff" fill-opacity="1"><g transform="translate(173.292274, 213.928428)"><g><path d="M 2.671875 -3.234375 C 2.972656 -3.085938 3.207031 -2.878906 3.375 -2.609375 C 3.539062 -2.347656 3.625 -2.046875 3.625 -1.703125 C 3.625 -1.335938 3.535156 -1.023438 3.359375 -0.765625 C 3.191406 -0.515625 2.96875 -0.320312 2.6875 -0.1875 C 2.414062 -0.0625 2.125 0 1.8125 0 L 1.8125 -1.046875 C 2.007812 -1.046875 2.179688 -1.101562 2.328125 -1.21875 C 2.472656 -1.34375 2.546875 -1.503906 2.546875 -1.703125 C 2.546875 -1.847656 2.503906 -1.96875 2.421875 -2.0625 C 2.347656 -2.164062 2.253906 -2.242188 2.140625 -2.296875 C 2.035156 -2.359375 1.925781 -2.394531 1.8125 -2.40625 C 1.789062 -2.40625 1.691406 -2.410156 1.515625 -2.421875 C 1.347656 -2.441406 1.160156 -2.5 0.953125 -2.59375 C 0.648438 -2.738281 0.414062 -2.9375 0.25 -3.1875 C 0.0820312 -3.4375 0 -3.726562 0 -4.0625 C 0 -4.425781 0.0820312 -4.738281 0.25 -5 C 0.425781 -5.269531 0.648438 -5.472656 0.921875 -5.609375 C 1.203125 -5.753906 1.5 -5.828125 1.8125 -5.828125 C 2.144531 -5.828125 2.441406 -5.753906 2.703125 -5.609375 C 2.972656 -5.472656 3.1875 -5.28125 3.34375 -5.03125 C 3.507812 -4.78125 3.59375 -4.492188 3.59375 -4.171875 C 3.601562 -4.160156 3.597656 -4.144531 3.578125 -4.125 C 3.554688 -4.113281 3.535156 -4.109375 3.515625 -4.109375 L 2.609375 -4.109375 C 2.585938 -4.109375 2.566406 -4.113281 2.546875 -4.125 C 2.535156 -4.144531 2.53125 -4.160156 2.53125 -4.171875 C 2.519531 -4.378906 2.441406 -4.53125 2.296875 -4.625 C 2.160156 -4.726562 2 -4.78125 1.8125 -4.78125 C 1.613281 -4.78125 1.441406 -4.71875 1.296875 -4.59375 C 1.148438 -4.476562 1.078125 -4.300781 1.078125 -4.0625 C 1.078125 -3.851562 1.148438 -3.691406 1.296875 -3.578125 C 1.453125 -3.472656 1.625 -3.421875 1.8125 -3.421875 C 1.820312 -3.421875 1.867188 -3.421875 1.953125 -3.421875 C 2.035156 -3.421875 2.140625 -3.40625 2.265625 -3.375 C 2.398438 -3.34375 2.535156 -3.296875 2.671875 -3.234375 Z M 2.671875 -3.234375 "/></g></g></g><g fill="#ffffff" fill-opacity="1"><g transform="translate(177.893547, 213.928428)"><g><path d="M 1.203125 -3.71875 L 2.3125 -3.71875 L 2.3125 -0.0625 C 2.3125 -0.0195312 2.28125 0 2.21875 0 L 1.28125 0 C 1.226562 0 1.203125 -0.0195312 1.203125 -0.0625 Z M 0.078125 -4.828125 C 0.0234375 -4.828125 0 -4.847656 0 -4.890625 L 0 -5.765625 C 0 -5.804688 0.0234375 -5.828125 0.078125 -5.828125 L 3.421875 -5.828125 C 3.472656 -5.828125 3.5 -5.804688 3.5 -5.765625 L 3.5 -4.890625 C 3.5 -4.847656 3.472656 -4.828125 3.421875 -4.828125 Z M 0.078125 -4.828125 "/></g></g></g><g fill="#ffffff" fill-opacity="1"><g transform="translate(182.371056, 213.928428)"><g><path d="M 2.765625 -1.078125 L 2.765625 0 L 0.078125 0 C 0.0234375 0 0 -0.0195312 0 -0.0625 L 0 -5.765625 C 0 -5.804688 0.0234375 -5.828125 0.078125 -5.828125 L 2.765625 -5.828125 L 2.765625 -4.765625 L 1.109375 -4.765625 L 1.109375 -3.453125 L 3.40625 -3.453125 C 3.457031 -3.453125 3.484375 -3.429688 3.484375 -3.390625 L 3.484375 -2.46875 C 3.484375 -2.414062 3.457031 -2.390625 3.40625 -2.390625 L 1.109375 -2.390625 L 1.109375 -1.078125 Z M 2.765625 -1.078125 "/></g></g></g><g fill="#ffffff" fill-opacity="1"><g transform="translate(186.826726, 213.928428)"><g><path d="M 1.03125 -5.828125 C 1.3125 -5.828125 1.609375 -5.804688 1.921875 -5.765625 C 2.242188 -5.722656 2.550781 -5.644531 2.84375 -5.53125 C 3.144531 -5.425781 3.414062 -5.265625 3.65625 -5.046875 C 3.894531 -4.835938 4.082031 -4.554688 4.21875 -4.203125 C 4.363281 -3.859375 4.4375 -3.425781 4.4375 -2.90625 C 4.4375 -2.40625 4.363281 -1.984375 4.21875 -1.640625 C 4.082031 -1.304688 3.894531 -1.03125 3.65625 -0.8125 C 3.425781 -0.59375 3.160156 -0.421875 2.859375 -0.296875 C 2.554688 -0.179688 2.25 -0.101562 1.9375 -0.0625 C 1.625 -0.0195312 1.320312 0 1.03125 0 L 0.078125 0 C 0.0234375 0 0 -0.0195312 0 -0.0625 L 0 -2.359375 L 1.109375 -2.359375 L 1.109375 -1.078125 C 1.253906 -1.066406 1.421875 -1.066406 1.609375 -1.078125 C 1.796875 -1.085938 1.988281 -1.125 2.1875 -1.1875 C 2.382812 -1.25 2.566406 -1.34375 2.734375 -1.46875 C 2.910156 -1.601562 3.050781 -1.785156 3.15625 -2.015625 C 3.257812 -2.253906 3.3125 -2.550781 3.3125 -2.90625 C 3.3125 -3.375 3.21875 -3.742188 3.03125 -4.015625 C 2.84375 -4.296875 2.582031 -4.492188 2.25 -4.609375 C 1.914062 -4.734375 1.535156 -4.785156 1.109375 -4.765625 L 1.109375 -3.46875 L 0 -3.46875 L 0 -5.765625 C 0 -5.804688 0.0234375 -5.828125 0.078125 -5.828125 Z M 1.03125 -5.828125 "/></g></g></g><g fill="#ffffff" fill-opacity="1"><g transform="translate(192.294379, 213.928428)"><g/></g></g><g fill="#ffffff" fill-opacity="1"><g transform="translate(194.915353, 213.928428)"><g><path d="M 1.109375 -3.296875 L 0 -3.296875 L 0 -5.765625 C 0 -5.804688 0.0234375 -5.828125 0.078125 -5.828125 L 1.03125 -5.828125 C 1.082031 -5.828125 1.109375 -5.804688 1.109375 -5.765625 Z M 4.359375 -5.828125 C 4.410156 -5.828125 4.4375 -5.804688 4.4375 -5.765625 L 4.4375 -0.0625 C 4.4375 -0.0195312 4.410156 0 4.359375 0 L 3.40625 0 C 3.34375 0 3.3125 -0.0195312 3.3125 -0.0625 L 3.3125 -1.09375 L 1.109375 -1.09375 L 1.109375 -0.0625 C 1.109375 -0.0195312 1.082031 0 1.03125 0 L 0.078125 0 C 0.0234375 0 0 -0.0195312 0 -0.0625 L 0 -2.1875 L 1.109375 -2.1875 L 1.109375 -2.171875 L 3.3125 -2.171875 L 3.3125 -5.765625 C 3.3125 -5.804688 3.34375 -5.828125 3.40625 -5.828125 Z M 4.359375 -5.828125 "/></g></g></g><g fill="#ffffff" fill-opacity="1"><g transform="translate(200.37573, 213.928428)"><g><path d="M 3.34375 -2.890625 C 3.34375 -2.742188 3.289062 -2.617188 3.1875 -2.515625 C 3.082031 -2.410156 2.953125 -2.359375 2.796875 -2.359375 C 2.648438 -2.359375 2.519531 -2.410156 2.40625 -2.515625 C 2.300781 -2.617188 2.25 -2.742188 2.25 -2.890625 C 2.25 -3.046875 2.300781 -3.175781 2.40625 -3.28125 C 2.519531 -3.394531 2.648438 -3.453125 2.796875 -3.453125 C 2.953125 -3.453125 3.082031 -3.394531 3.1875 -3.28125 C 3.289062 -3.175781 3.34375 -3.046875 3.34375 -2.890625 Z M 5.609375 -2.921875 C 5.609375 -2.554688 5.546875 -2.195312 5.421875 -1.84375 C 5.304688 -1.5 5.132812 -1.1875 4.90625 -0.90625 C 4.675781 -0.632812 4.382812 -0.414062 4.03125 -0.25 C 3.6875 -0.0820312 3.28125 0 2.8125 0 C 2.34375 0 1.929688 -0.0820312 1.578125 -0.25 C 1.222656 -0.414062 0.925781 -0.632812 0.6875 -0.90625 C 0.457031 -1.1875 0.285156 -1.5 0.171875 -1.84375 C 0.0546875 -2.195312 0 -2.554688 0 -2.921875 C 0 -3.285156 0.0546875 -3.640625 0.171875 -3.984375 C 0.285156 -4.328125 0.457031 -4.632812 0.6875 -4.90625 C 0.925781 -5.1875 1.222656 -5.410156 1.578125 -5.578125 C 1.929688 -5.742188 2.34375 -5.828125 2.8125 -5.828125 C 3.28125 -5.828125 3.6875 -5.742188 4.03125 -5.578125 C 4.382812 -5.410156 4.675781 -5.1875 4.90625 -4.90625 C 5.132812 -4.632812 5.304688 -4.328125 5.421875 -3.984375 C 5.546875 -3.640625 5.609375 -3.285156 5.609375 -2.921875 Z M 4.515625 -2.890625 C 4.515625 -3.128906 4.476562 -3.363281 4.40625 -3.59375 C 4.332031 -3.820312 4.222656 -4.023438 4.078125 -4.203125 C 3.941406 -4.390625 3.765625 -4.535156 3.546875 -4.640625 C 3.335938 -4.742188 3.09375 -4.796875 2.8125 -4.796875 C 2.519531 -4.796875 2.265625 -4.742188 2.046875 -4.640625 C 1.835938 -4.535156 1.660156 -4.390625 1.515625 -4.203125 C 1.378906 -4.023438 1.273438 -3.820312 1.203125 -3.59375 C 1.128906 -3.363281 1.09375 -3.128906 1.09375 -2.890625 C 1.09375 -2.660156 1.128906 -2.429688 1.203125 -2.203125 C 1.273438 -1.984375 1.378906 -1.785156 1.515625 -1.609375 C 1.660156 -1.429688 1.835938 -1.285156 2.046875 -1.171875 C 2.265625 -1.066406 2.519531 -1.015625 2.8125 -1.015625 C 3.09375 -1.015625 3.335938 -1.066406 3.546875 -1.171875 C 3.765625 -1.285156 3.941406 -1.429688 4.078125 -1.609375 C 4.222656 -1.785156 4.332031 -1.984375 4.40625 -2.203125 C 4.476562 -2.429688 4.515625 -2.660156 4.515625 -2.890625 Z M 4.515625 -2.890625 "/></g></g></g><g fill="#ffffff" fill-opacity="1"><g transform="translate(207.059237, 213.928428)"><g><path d="M 5.21875 -1.40625 L 5.21875 -3.25 L 3.734375 -0.28125 C 3.722656 -0.25 3.695312 -0.234375 3.65625 -0.234375 L 2.765625 -0.234375 C 2.722656 -0.234375 2.695312 -0.25 2.6875 -0.28125 L 1.109375 -3.328125 L 1.109375 -0.0625 C 1.109375 -0.0195312 1.082031 0 1.03125 0 L 0.078125 0 C 0.0234375 0 0 -0.0195312 0 -0.0625 L 0 -5.765625 C 0 -5.804688 0.0234375 -5.828125 0.078125 -5.828125 L 1.046875 -5.828125 C 1.085938 -5.828125 1.113281 -5.8125 1.125 -5.78125 L 3.21875 -1.515625 L 5.203125 -5.78125 C 5.222656 -5.8125 5.25 -5.828125 5.28125 -5.828125 L 6.234375 -5.828125 C 6.285156 -5.828125 6.3125 -5.804688 6.3125 -5.765625 L 6.3125 -1.40625 Z M 5.21875 -1.40625 "/></g></g></g><g fill="#ffffff" fill-opacity="1"><g transform="translate(214.499913, 213.928428)"><g><path d="M 2.765625 -1.078125 L 2.765625 0 L 0.078125 0 C 0.0234375 0 0 -0.0195312 0 -0.0625 L 0 -5.765625 C 0 -5.804688 0.0234375 -5.828125 0.078125 -5.828125 L 2.765625 -5.828125 L 2.765625 -4.765625 L 1.109375 -4.765625 L 1.109375 -3.453125 L 3.40625 -3.453125 C 3.457031 -3.453125 3.484375 -3.429688 3.484375 -3.390625 L 3.484375 -2.46875 C 3.484375 -2.414062 3.457031 -2.390625 3.40625 -2.390625 L 1.109375 -2.390625 L 1.109375 -1.078125 Z M 2.765625 -1.078125 "/></g></g></g><g fill="#ffffff" fill-opacity="1"><g transform="translate(218.955587, 213.928428)"><g/></g></g><g fill="#ffffff" fill-opacity="1"><g transform="translate(221.576566, 213.928428)"><g><path d="M 2.671875 -3.234375 C 2.972656 -3.085938 3.207031 -2.878906 3.375 -2.609375 C 3.539062 -2.347656 3.625 -2.046875 3.625 -1.703125 C 3.625 -1.335938 3.535156 -1.023438 3.359375 -0.765625 C 3.191406 -0.515625 2.96875 -0.320312 2.6875 -0.1875 C 2.414062 -0.0625 2.125 0 1.8125 0 L 1.8125 -1.046875 C 2.007812 -1.046875 2.179688 -1.101562 2.328125 -1.21875 C 2.472656 -1.34375 2.546875 -1.503906 2.546875 -1.703125 C 2.546875 -1.847656 2.503906 -1.96875 2.421875 -2.0625 C 2.347656 -2.164062 2.253906 -2.242188 2.140625 -2.296875 C 2.035156 -2.359375 1.925781 -2.394531 1.8125 -2.40625 C 1.789062 -2.40625 1.691406 -2.410156 1.515625 -2.421875 C 1.347656 -2.441406 1.160156 -2.5 0.953125 -2.59375 C 0.648438 -2.738281 0.414062 -2.9375 0.25 -3.1875 C 0.0820312 -3.4375 0 -3.726562 0 -4.0625 C 0 -4.425781 0.0820312 -4.738281 0.25 -5 C 0.425781 -5.269531 0.648438 -5.472656 0.921875 -5.609375 C 1.203125 -5.753906 1.5 -5.828125 1.8125 -5.828125 C 2.144531 -5.828125 2.441406 -5.753906 2.703125 -5.609375 C 2.972656 -5.472656 3.1875 -5.28125 3.34375 -5.03125 C 3.507812 -4.78125 3.59375 -4.492188 3.59375 -4.171875 C 3.601562 -4.160156 3.597656 -4.144531 3.578125 -4.125 C 3.554688 -4.113281 3.535156 -4.109375 3.515625 -4.109375 L 2.609375 -4.109375 C 2.585938 -4.109375 2.566406 -4.113281 2.546875 -4.125 C 2.535156 -4.144531 2.53125 -4.160156 2.53125 -4.171875 C 2.519531 -4.378906 2.441406 -4.53125 2.296875 -4.625 C 2.160156 -4.726562 2 -4.78125 1.8125 -4.78125 C 1.613281 -4.78125 1.441406 -4.71875 1.296875 -4.59375 C 1.148438 -4.476562 1.078125 -4.300781 1.078125 -4.0625 C 1.078125 -3.851562 1.148438 -3.691406 1.296875 -3.578125 C 1.453125 -3.472656 1.625 -3.421875 1.8125 -3.421875 C 1.820312 -3.421875 1.867188 -3.421875 1.953125 -3.421875 C 2.035156 -3.421875 2.140625 -3.40625 2.265625 -3.375 C 2.398438 -3.34375 2.535156 -3.296875 2.671875 -3.234375 Z M 2.671875 -3.234375 "/></g></g></g><g fill="#ffffff" fill-opacity="1"><g transform="translate(226.177844, 213.928428)"><g><path d="M 2.765625 -1.078125 L 2.765625 0 L 0.078125 0 C 0.0234375 0 0 -0.0195312 0 -0.0625 L 0 -5.765625 C 0 -5.804688 0.0234375 -5.828125 0.078125 -5.828125 L 2.765625 -5.828125 L 2.765625 -4.765625 L 1.109375 -4.765625 L 1.109375 -3.453125 L 3.40625 -3.453125 C 3.457031 -3.453125 3.484375 -3.429688 3.484375 -3.390625 L 3.484375 -2.46875 C 3.484375 -2.414062 3.457031 -2.390625 3.40625 -2.390625 L 1.109375 -2.390625 L 1.109375 -1.078125 Z M 2.765625 -1.078125 "/></g></g></g><g fill="#ffffff" fill-opacity="1"><g transform="translate(230.633519, 213.928428)"><g><path d="M 3.328125 -1.078125 L 4.4375 -1.078125 L 4.4375 -0.0625 C 4.4375 -0.0195312 4.410156 0 4.359375 0 L 3.421875 0 C 3.128906 0 2.820312 -0.0195312 2.5 -0.0625 C 2.1875 -0.101562 1.878906 -0.179688 1.578125 -0.296875 C 1.285156 -0.421875 1.019531 -0.59375 0.78125 -0.8125 C 0.539062 -1.03125 0.347656 -1.304688 0.203125 -1.640625 C 0.0664062 -1.984375 0 -2.40625 0 -2.90625 C 0 -3.425781 0.0664062 -3.859375 0.203125 -4.203125 C 0.347656 -4.554688 0.539062 -4.835938 0.78125 -5.046875 C 1.03125 -5.265625 1.300781 -5.425781 1.59375 -5.53125 C 1.894531 -5.644531 2.203125 -5.722656 2.515625 -5.765625 C 2.828125 -5.804688 3.128906 -5.828125 3.421875 -5.828125 L 4.359375 -5.828125 C 4.410156 -5.828125 4.4375 -5.804688 4.4375 -5.765625 L 4.4375 -3.46875 L 3.328125 -3.46875 L 3.328125 -4.765625 C 2.898438 -4.785156 2.519531 -4.734375 2.1875 -4.609375 C 1.863281 -4.492188 1.601562 -4.296875 1.40625 -4.015625 C 1.21875 -3.742188 1.125 -3.375 1.125 -2.90625 C 1.125 -2.550781 1.175781 -2.253906 1.28125 -2.015625 C 1.382812 -1.785156 1.519531 -1.601562 1.6875 -1.46875 C 1.863281 -1.34375 2.050781 -1.25 2.25 -1.1875 C 2.445312 -1.125 2.640625 -1.085938 2.828125 -1.078125 C 3.015625 -1.066406 3.179688 -1.066406 3.328125 -1.078125 Z M 3.328125 -1.078125 "/></g></g></g><g fill="#ffffff" fill-opacity="1"><g transform="translate(236.101177, 213.928428)"><g><path d="M 4.296875 -5.828125 C 4.347656 -5.828125 4.375 -5.804688 4.375 -5.765625 L 4.375 -1.9375 C 4.375 -1.53125 4.273438 -1.179688 4.078125 -0.890625 C 3.890625 -0.597656 3.628906 -0.375 3.296875 -0.21875 C 2.960938 -0.0703125 2.59375 0 2.1875 0 C 1.789062 0 1.425781 -0.078125 1.09375 -0.234375 C 0.757812 -0.390625 0.492188 -0.613281 0.296875 -0.90625 C 0.0976562 -1.195312 0 -1.539062 0 -1.9375 L 0 -4.765625 L 1.09375 -4.765625 L 1.09375 -1.953125 C 1.132812 -1.660156 1.257812 -1.441406 1.46875 -1.296875 C 1.675781 -1.148438 1.914062 -1.078125 2.1875 -1.078125 C 2.375 -1.078125 2.546875 -1.109375 2.703125 -1.171875 C 2.867188 -1.234375 3.003906 -1.328125 3.109375 -1.453125 C 3.210938 -1.585938 3.265625 -1.75 3.265625 -1.9375 L 3.265625 -5.765625 C 3.265625 -5.804688 3.289062 -5.828125 3.34375 -5.828125 Z M 4.296875 -5.828125 "/></g></g></g><g fill="#ffffff" fill-opacity="1"><g transform="translate(241.488756, 213.928428)"><g><path d="M 3.96875 -0.09375 C 3.976562 -0.0703125 3.976562 -0.0507812 3.96875 -0.03125 C 3.957031 -0.0078125 3.9375 0 3.90625 0 L 2.875 0 C 2.832031 0 2.804688 -0.015625 2.796875 -0.046875 L 1.734375 -2.359375 L 1.109375 -2.359375 L 1.109375 -0.0625 C 1.109375 -0.0195312 1.082031 0 1.03125 0 L 0.078125 0 C 0.0234375 0 0 -0.0195312 0 -0.0625 L 0 -3.421875 L 1.953125 -3.421875 C 2.015625 -3.421875 2.09375 -3.425781 2.1875 -3.4375 C 2.289062 -3.445312 2.390625 -3.472656 2.484375 -3.515625 C 2.578125 -3.554688 2.65625 -3.625 2.71875 -3.71875 C 2.78125 -3.8125 2.8125 -3.9375 2.8125 -4.09375 C 2.8125 -4.25 2.773438 -4.375 2.703125 -4.46875 C 2.640625 -4.5625 2.554688 -4.628906 2.453125 -4.671875 C 2.347656 -4.710938 2.25 -4.738281 2.15625 -4.75 C 2.070312 -4.757812 2.003906 -4.765625 1.953125 -4.765625 L 0 -4.765625 L 0 -5.765625 C 0 -5.804688 0.0234375 -5.828125 0.078125 -5.828125 L 1.953125 -5.828125 C 2.023438 -5.828125 2.132812 -5.816406 2.28125 -5.796875 C 2.4375 -5.785156 2.609375 -5.753906 2.796875 -5.703125 C 2.984375 -5.648438 3.160156 -5.5625 3.328125 -5.4375 C 3.503906 -5.320312 3.644531 -5.15625 3.75 -4.9375 C 3.863281 -4.71875 3.921875 -4.4375 3.921875 -4.09375 C 3.921875 -3.789062 3.875 -3.535156 3.78125 -3.328125 C 3.6875 -3.128906 3.554688 -2.960938 3.390625 -2.828125 C 3.222656 -2.703125 3.046875 -2.601562 2.859375 -2.53125 C 3.035156 -2.113281 3.21875 -1.703125 3.40625 -1.296875 C 3.601562 -0.898438 3.789062 -0.5 3.96875 -0.09375 Z M 3.96875 -0.09375 "/></g></g></g><g fill="#ffffff" fill-opacity="1"><g transform="translate(246.475909, 213.928428)"><g><path d="M 2.375 -1 C 2.425781 -1 2.453125 -0.976562 2.453125 -0.9375 L 2.453125 -0.0625 C 2.453125 -0.0195312 2.425781 0 2.375 0 L 0.078125 0 C 0.0234375 0 0 -0.0195312 0 -0.0625 L 0 -0.9375 C 0 -0.976562 0.0234375 -1 0.078125 -1 L 0.671875 -1 L 0.671875 -5.828125 L 1.796875 -5.828125 L 1.796875 -1 Z M 2.375 -1 "/></g></g></g><g fill="#ffffff" fill-opacity="1"><g transform="translate(249.854065, 213.928428)"><g><path d="M 1.203125 -3.71875 L 2.3125 -3.71875 L 2.3125 -0.0625 C 2.3125 -0.0195312 2.28125 0 2.21875 0 L 1.28125 0 C 1.226562 0 1.203125 -0.0195312 1.203125 -0.0625 Z M 0.078125 -4.828125 C 0.0234375 -4.828125 0 -4.847656 0 -4.890625 L 0 -5.765625 C 0 -5.804688 0.0234375 -5.828125 0.078125 -5.828125 L 3.421875 -5.828125 C 3.472656 -5.828125 3.5 -5.804688 3.5 -5.765625 L 3.5 -4.890625 C 3.5 -4.847656 3.472656 -4.828125 3.421875 -4.828125 Z M 0.078125 -4.828125 "/></g></g></g><g fill="#ffffff" fill-opacity="1"><g transform="translate(254.331579, 213.928428)"><g><path d="M 3.3125 -4.71875 L 4.65625 -4.71875 L 3.25 -2.734375 L 3.25 -0.0625 C 3.25 -0.0195312 3.222656 0 3.171875 0 L 2.21875 0 C 2.164062 0 2.140625 -0.0195312 2.140625 -0.0625 L 2.140625 -2.734375 C 1.785156 -3.234375 1.429688 -3.726562 1.078125 -4.21875 C 0.722656 -4.71875 0.367188 -5.21875 0.015625 -5.71875 C -0.00390625 -5.738281 -0.0078125 -5.757812 0 -5.78125 C 0.0195312 -5.8125 0.0507812 -5.828125 0.09375 -5.828125 L 1.234375 -5.828125 C 1.265625 -5.828125 1.289062 -5.816406 1.3125 -5.796875 L 2.6875 -3.859375 Z M 3.3125 -4.71875 "/></g></g></g><g fill="#ffffff" fill-opacity="1"><g transform="translate(260.024936, 213.928428)"><g/></g></g><g fill="#ffffff" fill-opacity="1"><g transform="translate(262.645915, 213.928428)"><g><path d="M 1.953125 -5.828125 C 2.003906 -5.828125 2.101562 -5.816406 2.25 -5.796875 C 2.394531 -5.785156 2.5625 -5.753906 2.75 -5.703125 C 2.9375 -5.648438 3.117188 -5.5625 3.296875 -5.4375 C 3.472656 -5.3125 3.617188 -5.140625 3.734375 -4.921875 C 3.859375 -4.703125 3.921875 -4.421875 3.921875 -4.078125 C 3.921875 -3.785156 3.875 -3.539062 3.78125 -3.34375 C 3.695312 -3.15625 3.582031 -2.992188 3.4375 -2.859375 C 3.300781 -2.734375 3.148438 -2.632812 2.984375 -2.5625 C 2.828125 -2.5 2.675781 -2.445312 2.53125 -2.40625 C 2.382812 -2.375 2.257812 -2.351562 2.15625 -2.34375 C 2.050781 -2.34375 1.984375 -2.34375 1.953125 -2.34375 L 1.09375 -2.34375 L 1.09375 -0.0625 C 1.09375 -0.0195312 1.066406 0 1.015625 0 L 0.078125 0 C 0.0234375 0 0 -0.0195312 0 -0.0625 L 0 -3.421875 L 1.953125 -3.421875 C 1.992188 -3.421875 2.054688 -3.425781 2.140625 -3.4375 C 2.234375 -3.445312 2.332031 -3.46875 2.4375 -3.5 C 2.539062 -3.539062 2.628906 -3.609375 2.703125 -3.703125 C 2.773438 -3.796875 2.8125 -3.921875 2.8125 -4.078125 C 2.8125 -4.234375 2.773438 -4.359375 2.703125 -4.453125 C 2.628906 -4.546875 2.539062 -4.613281 2.4375 -4.65625 C 2.332031 -4.695312 2.234375 -4.722656 2.140625 -4.734375 C 2.054688 -4.742188 1.992188 -4.75 1.953125 -4.75 L 0 -4.75 L 0 -5.765625 C 0 -5.804688 0.0234375 -5.828125 0.078125 -5.828125 Z M 1.953125 -5.828125 "/></g></g></g><g fill="#ffffff" fill-opacity="1"><g transform="translate(267.567533, 213.928428)"><g><path d="M 4.578125 -0.09375 C 4.585938 -0.0703125 4.582031 -0.0507812 4.5625 -0.03125 C 4.550781 -0.0078125 4.53125 0 4.5 0 L 3.5 0 C 3.46875 0 3.445312 -0.015625 3.4375 -0.046875 L 2.28125 -3.296875 L 1.15625 -0.046875 C 1.144531 -0.015625 1.117188 0 1.078125 0 L 0.078125 0 C 0.046875 0 0.0234375 -0.0078125 0.015625 -0.03125 C 0.00390625 -0.0507812 0 -0.0703125 0 -0.09375 L 2.21875 -5.78125 C 2.226562 -5.8125 2.25 -5.828125 2.28125 -5.828125 C 2.320312 -5.828125 2.347656 -5.8125 2.359375 -5.78125 Z M 4.578125 -0.09375 "/></g></g></g><g fill="#ffffff" fill-opacity="1"><g transform="translate(273.173518, 213.928428)"><g><path d="M 3.96875 -0.09375 C 3.976562 -0.0703125 3.976562 -0.0507812 3.96875 -0.03125 C 3.957031 -0.0078125 3.9375 0 3.90625 0 L 2.875 0 C 2.832031 0 2.804688 -0.015625 2.796875 -0.046875 L 1.734375 -2.359375 L 1.109375 -2.359375 L 1.109375 -0.0625 C 1.109375 -0.0195312 1.082031 0 1.03125 0 L 0.078125 0 C 0.0234375 0 0 -0.0195312 0 -0.0625 L 0 -3.421875 L 1.953125 -3.421875 C 2.015625 -3.421875 2.09375 -3.425781 2.1875 -3.4375 C 2.289062 -3.445312 2.390625 -3.472656 2.484375 -3.515625 C 2.578125 -3.554688 2.65625 -3.625 2.71875 -3.71875 C 2.78125 -3.8125 2.8125 -3.9375 2.8125 -4.09375 C 2.8125 -4.25 2.773438 -4.375 2.703125 -4.46875 C 2.640625 -4.5625 2.554688 -4.628906 2.453125 -4.671875 C 2.347656 -4.710938 2.25 -4.738281 2.15625 -4.75 C 2.070312 -4.757812 2.003906 -4.765625 1.953125 -4.765625 L 0 -4.765625 L 0 -5.765625 C 0 -5.804688 0.0234375 -5.828125 0.078125 -5.828125 L 1.953125 -5.828125 C 2.023438 -5.828125 2.132812 -5.816406 2.28125 -5.796875 C 2.4375 -5.785156 2.609375 -5.753906 2.796875 -5.703125 C 2.984375 -5.648438 3.160156 -5.5625 3.328125 -5.4375 C 3.503906 -5.320312 3.644531 -5.15625 3.75 -4.9375 C 3.863281 -4.71875 3.921875 -4.4375 3.921875 -4.09375 C 3.921875 -3.789062 3.875 -3.535156 3.78125 -3.328125 C 3.6875 -3.128906 3.554688 -2.960938 3.390625 -2.828125 C 3.222656 -2.703125 3.046875 -2.601562 2.859375 -2.53125 C 3.035156 -2.113281 3.21875 -1.703125 3.40625 -1.296875 C 3.601562 -0.898438 3.789062 -0.5 3.96875 -0.09375 Z M 3.96875 -0.09375 "/></g></g></g><g fill="#ffffff" fill-opacity="1"><g transform="translate(278.16067, 213.928428)"><g><path d="M 1.203125 -3.71875 L 2.3125 -3.71875 L 2.3125 -0.0625 C 2.3125 -0.0195312 2.28125 0 2.21875 0 L 1.28125 0 C 1.226562 0 1.203125 -0.0195312 1.203125 -0.0625 Z M 0.078125 -4.828125 C 0.0234375 -4.828125 0 -4.847656 0 -4.890625 L 0 -5.765625 C 0 -5.804688 0.0234375 -5.828125 0.078125 -5.828125 L 3.421875 -5.828125 C 3.472656 -5.828125 3.5 -5.804688 3.5 -5.765625 L 3.5 -4.890625 C 3.5 -4.847656 3.472656 -4.828125 3.421875 -4.828125 Z M 0.078125 -4.828125 "/></g></g></g><g fill="#ffffff" fill-opacity="1"><g transform="translate(282.638184, 213.928428)"><g><path d="M 4.8125 -5.828125 C 4.875 -5.828125 4.90625 -5.804688 4.90625 -5.765625 L 4.90625 -0.0625 C 4.90625 -0.0195312 4.875 0 4.8125 0 L 3.859375 0 C 3.859375 0 3.847656 0 3.828125 0 C 3.804688 -0.0078125 3.796875 -0.015625 3.796875 -0.015625 L 1.109375 -3.859375 L 1.109375 -1.390625 L 0 -1.390625 L 0 -5.765625 C 0 -5.804688 0.0234375 -5.828125 0.078125 -5.828125 L 1.046875 -5.828125 C 1.054688 -5.828125 1.066406 -5.820312 1.078125 -5.8125 C 1.085938 -5.8125 1.097656 -5.804688 1.109375 -5.796875 L 3.796875 -1.96875 L 3.796875 -5.765625 C 3.796875 -5.804688 3.820312 -5.828125 3.875 -5.828125 Z M 4.8125 -5.828125 "/></g></g></g><g fill="#ffffff" fill-opacity="1"><g transform="translate(288.586356, 213.928428)"><g><path d="M 2.765625 -1.078125 L 2.765625 0 L 0.078125 0 C 0.0234375 0 0 -0.0195312 0 -0.0625 L 0 -5.765625 C 0 -5.804688 0.0234375 -5.828125 0.078125 -5.828125 L 2.765625 -5.828125 L 2.765625 -4.765625 L 1.109375 -4.765625 L 1.109375 -3.453125 L 3.40625 -3.453125 C 3.457031 -3.453125 3.484375 -3.429688 3.484375 -3.390625 L 3.484375 -2.46875 C 3.484375 -2.414062 3.457031 -2.390625 3.40625 -2.390625 L 1.109375 -2.390625 L 1.109375 -1.078125 Z M 2.765625 -1.078125 "/></g></g></g><g fill="#ffffff" fill-opacity="1"><g transform="translate(293.042031, 213.928428)"><g><path d="M 3.96875 -0.09375 C 3.976562 -0.0703125 3.976562 -0.0507812 3.96875 -0.03125 C 3.957031 -0.0078125 3.9375 0 3.90625 0 L 2.875 0 C 2.832031 0 2.804688 -0.015625 2.796875 -0.046875 L 1.734375 -2.359375 L 1.109375 -2.359375 L 1.109375 -0.0625 C 1.109375 -0.0195312 1.082031 0 1.03125 0 L 0.078125 0 C 0.0234375 0 0 -0.0195312 0 -0.0625 L 0 -3.421875 L 1.953125 -3.421875 C 2.015625 -3.421875 2.09375 -3.425781 2.1875 -3.4375 C 2.289062 -3.445312 2.390625 -3.472656 2.484375 -3.515625 C 2.578125 -3.554688 2.65625 -3.625 2.71875 -3.71875 C 2.78125 -3.8125 2.8125 -3.9375 2.8125 -4.09375 C 2.8125 -4.25 2.773438 -4.375 2.703125 -4.46875 C 2.640625 -4.5625 2.554688 -4.628906 2.453125 -4.671875 C 2.347656 -4.710938 2.25 -4.738281 2.15625 -4.75 C 2.070312 -4.757812 2.003906 -4.765625 1.953125 -4.765625 L 0 -4.765625 L 0 -5.765625 C 0 -5.804688 0.0234375 -5.828125 0.078125 -5.828125 L 1.953125 -5.828125 C 2.023438 -5.828125 2.132812 -5.816406 2.28125 -5.796875 C 2.4375 -5.785156 2.609375 -5.753906 2.796875 -5.703125 C 2.984375 -5.648438 3.160156 -5.5625 3.328125 -5.4375 C 3.503906 -5.320312 3.644531 -5.15625 3.75 -4.9375 C 3.863281 -4.71875 3.921875 -4.4375 3.921875 -4.09375 C 3.921875 -3.789062 3.875 -3.535156 3.78125 -3.328125 C 3.6875 -3.128906 3.554688 -2.960938 3.390625 -2.828125 C 3.222656 -2.703125 3.046875 -2.601562 2.859375 -2.53125 C 3.035156 -2.113281 3.21875 -1.703125 3.40625 -1.296875 C 3.601562 -0.898438 3.789062 -0.5 3.96875 -0.09375 Z M 3.96875 -0.09375 "/></g></g></g></svg>