<svg xmlns="http://www.w3.org/2000/svg" xmlns:xlink="http://www.w3.org/1999/xlink" width="433" zoomAndPan="magnify" viewBox="0 0 324.75 90.749999" height="121" preserveAspectRatio="xMidYMid meet" version="1.0"><defs><g/><clipPath id="65a4b12cae"><path d="M 8.300781 0 L 316 0 L 316 90.101562 L 8.300781 90.101562 Z M 8.300781 0 " clip-rule="nonzero"/></clipPath></defs><g clip-path="url(#65a4b12cae)"><path fill="#000000" d="M 8.300781 0 L 315.90625 0 L 315.90625 90.101562 L 8.300781 90.101562 Z M 8.300781 0 " fill-opacity="1" fill-rule="nonzero"/></g><g fill="#ffffff" fill-opacity="1"><g transform="translate(47.831945, 59.085911)"><g><path d="M 25.046875 -0.484375 C 25.097656 -0.367188 25.082031 -0.257812 25 -0.15625 C 24.925781 -0.0507812 24.820312 0 24.6875 0 L 19.1875 0 C 19 0 18.878906 -0.078125 18.828125 -0.234375 L 12.53125 -18.03125 L 6.296875 -0.234375 C 6.273438 -0.078125 6.144531 0 5.90625 0 L 0.4375 0 C 0.25 0 0.117188 -0.0507812 0.046875 -0.15625 C -0.015625 -0.257812 -0.015625 -0.367188 0.046875 -0.484375 L 12.125 -31.671875 C 12.175781 -31.828125 12.304688 -31.90625 12.515625 -31.90625 C 12.734375 -31.90625 12.867188 -31.828125 12.921875 -31.671875 Z M 25.046875 -0.484375 "/></g></g></g><g fill="#ffffff" fill-opacity="1"><g transform="translate(78.544708, 59.085911)"><g><path d="M 21.78125 -0.515625 C 21.832031 -0.378906 21.820312 -0.257812 21.75 -0.15625 C 21.6875 -0.0507812 21.578125 0 21.421875 0 L 15.71875 0 C 15.5 0 15.363281 -0.078125 15.3125 -0.234375 L 9.5 -12.890625 L 6.0625 -12.890625 L 6.0625 -0.359375 C 6.0625 -0.117188 5.914062 0 5.625 0 L 0.40625 0 C 0.132812 0 0 -0.117188 0 -0.359375 L 0 -18.75 L 10.734375 -18.75 C 11.046875 -18.75 11.46875 -18.773438 12 -18.828125 C 12.539062 -18.878906 13.066406 -19.023438 13.578125 -19.265625 C 14.097656 -19.503906 14.535156 -19.867188 14.890625 -20.359375 C 15.253906 -20.859375 15.4375 -21.546875 15.4375 -22.421875 C 15.4375 -23.296875 15.242188 -23.984375 14.859375 -24.484375 C 14.472656 -24.992188 14 -25.359375 13.4375 -25.578125 C 12.882812 -25.804688 12.351562 -25.953125 11.84375 -26.015625 C 11.34375 -26.085938 10.972656 -26.125 10.734375 -26.125 L 0 -26.125 L 0 -31.546875 C 0 -31.785156 0.132812 -31.90625 0.40625 -31.90625 L 10.734375 -31.90625 C 11.097656 -31.90625 11.691406 -31.875 12.515625 -31.8125 C 13.347656 -31.75 14.273438 -31.566406 15.296875 -31.265625 C 16.316406 -30.972656 17.300781 -30.492188 18.25 -29.828125 C 19.195312 -29.171875 19.972656 -28.242188 20.578125 -27.046875 C 21.191406 -25.847656 21.5 -24.304688 21.5 -22.421875 C 21.5 -20.796875 21.234375 -19.414062 20.703125 -18.28125 C 20.171875 -17.15625 19.457031 -16.234375 18.5625 -15.515625 C 17.675781 -14.796875 16.703125 -14.238281 15.640625 -13.84375 C 16.648438 -11.582031 17.675781 -9.347656 18.71875 -7.140625 C 19.769531 -4.929688 20.789062 -2.722656 21.78125 -0.515625 Z M 21.78125 -0.515625 "/></g></g></g><g fill="#ffffff" fill-opacity="1"><g transform="translate(105.867149, 59.085911)"><g><path d="M 25.453125 -0.59375 C 25.585938 -0.4375 25.613281 -0.296875 25.53125 -0.171875 C 25.445312 -0.0546875 25.300781 0 25.09375 0 L 18.234375 0 C 18.066406 0 17.945312 -0.0390625 17.875 -0.125 L 8.578125 -11.609375 C 8.441406 -11.472656 8.140625 -11.144531 7.671875 -10.625 C 7.210938 -10.113281 6.65625 -9.488281 6 -8.75 C 5.351562 -8.019531 4.679688 -7.265625 3.984375 -6.484375 C 3.296875 -5.703125 2.644531 -4.960938 2.03125 -4.265625 C 1.414062 -3.578125 0.921875 -3.019531 0.546875 -2.59375 C 0.179688 -2.164062 0 -1.953125 0 -1.953125 L 0 -31.546875 C 0 -31.785156 0.144531 -31.90625 0.4375 -31.90625 L 5.703125 -31.90625 C 5.972656 -31.90625 6.109375 -31.785156 6.109375 -31.546875 L 6.109375 -17.03125 L 18.109375 -31.796875 C 18.191406 -31.867188 18.3125 -31.90625 18.46875 -31.90625 L 24.96875 -31.90625 C 25.1875 -31.90625 25.332031 -31.835938 25.40625 -31.703125 C 25.488281 -31.578125 25.460938 -31.445312 25.328125 -31.3125 L 12.640625 -15.671875 Z M 25.453125 -0.59375 "/></g></g></g><g fill="#ffffff" fill-opacity="1"><g transform="translate(137.098434, 59.085911)"><g><path d="M 6.578125 -20.34375 L 12.640625 -20.34375 L 12.640625 -0.359375 C 12.640625 -0.117188 12.484375 0 12.171875 0 L 7.015625 0 C 6.722656 0 6.578125 -0.117188 6.578125 -0.359375 Z M 0.4375 -26.453125 C 0.144531 -26.453125 0 -26.570312 0 -26.8125 L 0 -31.546875 C 0 -31.785156 0.144531 -31.90625 0.4375 -31.90625 L 18.75 -31.90625 C 19.039062 -31.90625 19.1875 -31.785156 19.1875 -31.546875 L 19.1875 -26.8125 C 19.1875 -26.570312 19.039062 -26.453125 18.75 -26.453125 Z M 0.4375 -26.453125 "/></g></g></g><g fill="#ffffff" fill-opacity="1"><g transform="translate(161.62885, 59.085911)"><g><path d="M 21.78125 -0.515625 C 21.832031 -0.378906 21.820312 -0.257812 21.75 -0.15625 C 21.6875 -0.0507812 21.578125 0 21.421875 0 L 15.71875 0 C 15.5 0 15.363281 -0.078125 15.3125 -0.234375 L 9.5 -12.890625 L 6.0625 -12.890625 L 6.0625 -0.359375 C 6.0625 -0.117188 5.914062 0 5.625 0 L 0.40625 0 C 0.132812 0 0 -0.117188 0 -0.359375 L 0 -18.75 L 10.734375 -18.75 C 11.046875 -18.75 11.46875 -18.773438 12 -18.828125 C 12.539062 -18.878906 13.066406 -19.023438 13.578125 -19.265625 C 14.097656 -19.503906 14.535156 -19.867188 14.890625 -20.359375 C 15.253906 -20.859375 15.4375 -21.546875 15.4375 -22.421875 C 15.4375 -23.296875 15.242188 -23.984375 14.859375 -24.484375 C 14.472656 -24.992188 14 -25.359375 13.4375 -25.578125 C 12.882812 -25.804688 12.351562 -25.953125 11.84375 -26.015625 C 11.34375 -26.085938 10.972656 -26.125 10.734375 -26.125 L 0 -26.125 L 0 -31.546875 C 0 -31.785156 0.132812 -31.90625 0.40625 -31.90625 L 10.734375 -31.90625 C 11.097656 -31.90625 11.691406 -31.875 12.515625 -31.8125 C 13.347656 -31.75 14.273438 -31.566406 15.296875 -31.265625 C 16.316406 -30.972656 17.300781 -30.492188 18.25 -29.828125 C 19.195312 -29.171875 19.972656 -28.242188 20.578125 -27.046875 C 21.191406 -25.847656 21.5 -24.304688 21.5 -22.421875 C 21.5 -20.796875 21.234375 -19.414062 20.703125 -18.28125 C 20.171875 -17.15625 19.457031 -16.234375 18.5625 -15.515625 C 17.675781 -14.796875 16.703125 -14.238281 15.640625 -13.84375 C 16.648438 -11.582031 17.675781 -9.347656 18.71875 -7.140625 C 19.769531 -4.929688 20.789062 -2.722656 21.78125 -0.515625 Z M 21.78125 -0.515625 "/></g></g></g><g fill="#ffffff" fill-opacity="1"><g transform="translate(188.951297, 59.085911)"><g><path d="M 25.046875 -0.484375 C 25.097656 -0.367188 25.082031 -0.257812 25 -0.15625 C 24.925781 -0.0507812 24.820312 0 24.6875 0 L 19.1875 0 C 19 0 18.878906 -0.078125 18.828125 -0.234375 L 12.53125 -18.03125 L 6.296875 -0.234375 C 6.273438 -0.078125 6.144531 0 5.90625 0 L 0.4375 0 C 0.25 0 0.117188 -0.0507812 0.046875 -0.15625 C -0.015625 -0.257812 -0.015625 -0.367188 0.046875 -0.484375 L 12.125 -31.671875 C 12.175781 -31.828125 12.304688 -31.90625 12.515625 -31.90625 C 12.734375 -31.90625 12.867188 -31.828125 12.921875 -31.671875 Z M 25.046875 -0.484375 "/></g></g></g><g fill="#ffffff" fill-opacity="1"><g transform="translate(219.664065, 59.085911)"><g><path d="M 18.234375 -5.859375 L 24.328125 -5.859375 L 24.328125 -0.359375 C 24.328125 -0.117188 24.179688 0 23.890625 0 L 18.703125 0 C 17.109375 0 15.445312 -0.117188 13.71875 -0.359375 C 11.988281 -0.597656 10.3125 -1.039062 8.6875 -1.6875 C 7.070312 -2.34375 5.601562 -3.257812 4.28125 -4.4375 C 2.96875 -5.625 1.925781 -7.15625 1.15625 -9.03125 C 0.382812 -10.90625 0 -13.210938 0 -15.953125 C 0 -18.773438 0.390625 -21.140625 1.171875 -23.046875 C 1.960938 -24.960938 3.015625 -26.503906 4.328125 -27.671875 C 5.640625 -28.847656 7.113281 -29.742188 8.75 -30.359375 C 10.382812 -30.972656 12.0625 -31.382812 13.78125 -31.59375 C 15.5 -31.800781 17.140625 -31.90625 18.703125 -31.90625 L 23.890625 -31.90625 C 24.179688 -31.90625 24.328125 -31.785156 24.328125 -31.546875 L 24.328125 -19.03125 L 18.234375 -19.03125 L 18.234375 -26.09375 C 15.921875 -26.21875 13.851562 -25.953125 12.03125 -25.296875 C 10.207031 -24.648438 8.769531 -23.5625 7.71875 -22.03125 C 6.664062 -20.507812 6.140625 -18.484375 6.140625 -15.953125 C 6.140625 -13.984375 6.425781 -12.359375 7 -11.078125 C 7.570312 -9.804688 8.328125 -8.8125 9.265625 -8.09375 C 10.210938 -7.375 11.234375 -6.847656 12.328125 -6.515625 C 13.421875 -6.191406 14.484375 -5.992188 15.515625 -5.921875 C 16.554688 -5.859375 17.460938 -5.835938 18.234375 -5.859375 Z M 18.234375 -5.859375 "/></g></g></g><g fill="#ffffff" fill-opacity="1"><g transform="translate(249.618989, 59.085911)"><g><path d="M 25.453125 -0.59375 C 25.585938 -0.4375 25.613281 -0.296875 25.53125 -0.171875 C 25.445312 -0.0546875 25.300781 0 25.09375 0 L 18.234375 0 C 18.066406 0 17.945312 -0.0390625 17.875 -0.125 L 8.578125 -11.609375 C 8.441406 -11.472656 8.140625 -11.144531 7.671875 -10.625 C 7.210938 -10.113281 6.65625 -9.488281 6 -8.75 C 5.351562 -8.019531 4.679688 -7.265625 3.984375 -6.484375 C 3.296875 -5.703125 2.644531 -4.960938 2.03125 -4.265625 C 1.414062 -3.578125 0.921875 -3.019531 0.546875 -2.59375 C 0.179688 -2.164062 0 -1.953125 0 -1.953125 L 0 -31.546875 C 0 -31.785156 0.144531 -31.90625 0.4375 -31.90625 L 5.703125 -31.90625 C 5.972656 -31.90625 6.109375 -31.785156 6.109375 -31.546875 L 6.109375 -17.03125 L 18.109375 -31.796875 C 18.191406 -31.867188 18.3125 -31.90625 18.46875 -31.90625 L 24.96875 -31.90625 C 25.1875 -31.90625 25.332031 -31.835938 25.40625 -31.703125 C 25.488281 -31.578125 25.460938 -31.445312 25.328125 -31.3125 L 12.640625 -15.671875 Z M 25.453125 -0.59375 "/></g></g></g><g fill="#ffffff" fill-opacity="1"><g transform="translate(107.877953, 74.22266)"><g><path d="M 3.296875 -4.703125 L 4.65625 -4.703125 L 3.25 -2.734375 L 3.25 -0.0625 C 3.25 -0.0195312 3.222656 0 3.171875 0 L 2.21875 0 C 2.164062 0 2.140625 -0.0195312 2.140625 -0.0625 L 2.140625 -2.734375 C 1.785156 -3.234375 1.429688 -3.726562 1.078125 -4.21875 C 0.722656 -4.71875 0.367188 -5.210938 0.015625 -5.703125 C -0.00390625 -5.722656 -0.0078125 -5.742188 0 -5.765625 C 0.0195312 -5.796875 0.0507812 -5.8125 0.09375 -5.8125 L 1.234375 -5.8125 C 1.265625 -5.8125 1.289062 -5.804688 1.3125 -5.796875 L 2.6875 -3.84375 Z M 3.296875 -4.703125 "/></g></g></g><g fill="#ffffff" fill-opacity="1"><g transform="translate(113.555665, 74.22266)"><g><path d="M 3.34375 -2.890625 C 3.34375 -2.742188 3.289062 -2.613281 3.1875 -2.5 C 3.082031 -2.394531 2.953125 -2.34375 2.796875 -2.34375 C 2.648438 -2.34375 2.519531 -2.394531 2.40625 -2.5 C 2.300781 -2.613281 2.25 -2.742188 2.25 -2.890625 C 2.25 -3.046875 2.300781 -3.175781 2.40625 -3.28125 C 2.519531 -3.382812 2.648438 -3.4375 2.796875 -3.4375 C 2.953125 -3.4375 3.082031 -3.382812 3.1875 -3.28125 C 3.289062 -3.175781 3.34375 -3.046875 3.34375 -2.890625 Z M 5.59375 -2.90625 C 5.59375 -2.550781 5.535156 -2.195312 5.421875 -1.84375 C 5.304688 -1.5 5.128906 -1.1875 4.890625 -0.90625 C 4.660156 -0.632812 4.367188 -0.414062 4.015625 -0.25 C 3.671875 -0.0820312 3.265625 0 2.796875 0 C 2.328125 0 1.914062 -0.0820312 1.5625 -0.25 C 1.21875 -0.414062 0.925781 -0.632812 0.6875 -0.90625 C 0.457031 -1.1875 0.285156 -1.5 0.171875 -1.84375 C 0.0546875 -2.195312 0 -2.550781 0 -2.90625 C 0 -3.269531 0.0546875 -3.625 0.171875 -3.96875 C 0.285156 -4.3125 0.457031 -4.617188 0.6875 -4.890625 C 0.925781 -5.171875 1.21875 -5.394531 1.5625 -5.5625 C 1.914062 -5.726562 2.328125 -5.8125 2.796875 -5.8125 C 3.265625 -5.8125 3.671875 -5.726562 4.015625 -5.5625 C 4.367188 -5.394531 4.660156 -5.171875 4.890625 -4.890625 C 5.128906 -4.617188 5.304688 -4.3125 5.421875 -3.96875 C 5.535156 -3.625 5.59375 -3.269531 5.59375 -2.90625 Z M 4.5 -2.890625 C 4.5 -3.128906 4.460938 -3.359375 4.390625 -3.578125 C 4.316406 -3.804688 4.207031 -4.007812 4.0625 -4.1875 C 3.925781 -4.375 3.75 -4.519531 3.53125 -4.625 C 3.320312 -4.726562 3.078125 -4.78125 2.796875 -4.78125 C 2.515625 -4.78125 2.265625 -4.726562 2.046875 -4.625 C 1.835938 -4.519531 1.660156 -4.375 1.515625 -4.1875 C 1.378906 -4.007812 1.273438 -3.804688 1.203125 -3.578125 C 1.128906 -3.359375 1.09375 -3.128906 1.09375 -2.890625 C 1.09375 -2.660156 1.128906 -2.429688 1.203125 -2.203125 C 1.273438 -1.984375 1.378906 -1.785156 1.515625 -1.609375 C 1.660156 -1.429688 1.835938 -1.285156 2.046875 -1.171875 C 2.265625 -1.066406 2.515625 -1.015625 2.796875 -1.015625 C 3.078125 -1.015625 3.320312 -1.066406 3.53125 -1.171875 C 3.75 -1.285156 3.925781 -1.429688 4.0625 -1.609375 C 4.207031 -1.785156 4.316406 -1.984375 4.390625 -2.203125 C 4.460938 -2.429688 4.5 -2.660156 4.5 -2.890625 Z M 4.5 -2.890625 "/></g></g></g><g fill="#ffffff" fill-opacity="1"><g transform="translate(120.220811, 74.22266)"><g><path d="M 4.28125 -5.8125 C 4.332031 -5.8125 4.359375 -5.789062 4.359375 -5.75 L 4.359375 -1.9375 C 4.359375 -1.53125 4.257812 -1.179688 4.0625 -0.890625 C 3.875 -0.597656 3.613281 -0.375 3.28125 -0.21875 C 2.957031 -0.0703125 2.585938 0 2.171875 0 C 1.773438 0 1.410156 -0.078125 1.078125 -0.234375 C 0.753906 -0.390625 0.492188 -0.613281 0.296875 -0.90625 C 0.0976562 -1.195312 0 -1.539062 0 -1.9375 L 0 -4.765625 L 1.09375 -4.765625 L 1.09375 -1.953125 C 1.125 -1.660156 1.242188 -1.4375 1.453125 -1.28125 C 1.671875 -1.132812 1.910156 -1.0625 2.171875 -1.0625 C 2.359375 -1.0625 2.535156 -1.09375 2.703125 -1.15625 C 2.867188 -1.21875 3.003906 -1.316406 3.109375 -1.453125 C 3.210938 -1.585938 3.265625 -1.75 3.265625 -1.9375 L 3.265625 -5.75 C 3.265625 -5.789062 3.289062 -5.8125 3.34375 -5.8125 Z M 4.28125 -5.8125 "/></g></g></g><g fill="#ffffff" fill-opacity="1"><g transform="translate(125.593586, 74.22266)"><g><path d="M 3.96875 -0.09375 C 3.976562 -0.0703125 3.972656 -0.0507812 3.953125 -0.03125 C 3.941406 -0.0078125 3.925781 0 3.90625 0 L 2.859375 0 C 2.816406 0 2.796875 -0.015625 2.796875 -0.046875 L 1.734375 -2.34375 L 1.109375 -2.34375 L 1.109375 -0.0625 C 1.109375 -0.0195312 1.082031 0 1.03125 0 L 0.078125 0 C 0.0234375 0 0 -0.0195312 0 -0.0625 L 0 -3.421875 L 1.953125 -3.421875 C 2.015625 -3.421875 2.09375 -3.421875 2.1875 -3.421875 C 2.28125 -3.429688 2.375 -3.457031 2.46875 -3.5 C 2.5625 -3.550781 2.640625 -3.617188 2.703125 -3.703125 C 2.773438 -3.796875 2.8125 -3.921875 2.8125 -4.078125 C 2.8125 -4.242188 2.773438 -4.367188 2.703125 -4.453125 C 2.628906 -4.546875 2.539062 -4.613281 2.4375 -4.65625 C 2.34375 -4.695312 2.25 -4.722656 2.15625 -4.734375 C 2.0625 -4.753906 1.992188 -4.765625 1.953125 -4.765625 L 0 -4.765625 L 0 -5.75 C 0 -5.789062 0.0234375 -5.8125 0.078125 -5.8125 L 1.953125 -5.8125 C 2.023438 -5.8125 2.132812 -5.804688 2.28125 -5.796875 C 2.425781 -5.785156 2.59375 -5.75 2.78125 -5.6875 C 2.96875 -5.632812 3.144531 -5.546875 3.3125 -5.421875 C 3.488281 -5.304688 3.632812 -5.140625 3.75 -4.921875 C 3.863281 -4.703125 3.921875 -4.421875 3.921875 -4.078125 C 3.921875 -3.785156 3.867188 -3.535156 3.765625 -3.328125 C 3.671875 -3.117188 3.539062 -2.945312 3.375 -2.8125 C 3.21875 -2.6875 3.039062 -2.585938 2.84375 -2.515625 C 3.03125 -2.109375 3.21875 -1.703125 3.40625 -1.296875 C 3.601562 -0.898438 3.789062 -0.5 3.96875 -0.09375 Z M 3.96875 -0.09375 "/></g></g></g><g fill="#ffffff" fill-opacity="1"><g transform="translate(130.567032, 74.22266)"><g/></g></g><g fill="#ffffff" fill-opacity="1"><g transform="translate(133.180806, 74.22266)"><g><path d="M 1.203125 -3.703125 L 2.296875 -3.703125 L 2.296875 -0.0625 C 2.296875 -0.0195312 2.269531 0 2.21875 0 L 1.28125 0 C 1.226562 0 1.203125 -0.0195312 1.203125 -0.0625 Z M 0.078125 -4.8125 C 0.0234375 -4.8125 0 -4.832031 0 -4.875 L 0 -5.75 C 0 -5.789062 0.0234375 -5.8125 0.078125 -5.8125 L 3.421875 -5.8125 C 3.472656 -5.8125 3.5 -5.789062 3.5 -5.75 L 3.5 -4.875 C 3.5 -4.832031 3.472656 -4.8125 3.421875 -4.8125 Z M 0.078125 -4.8125 "/></g></g></g><g fill="#ffffff" fill-opacity="1"><g transform="translate(137.646014, 74.22266)"><g><path d="M 3.96875 -0.09375 C 3.976562 -0.0703125 3.972656 -0.0507812 3.953125 -0.03125 C 3.941406 -0.0078125 3.925781 0 3.90625 0 L 2.859375 0 C 2.816406 0 2.796875 -0.015625 2.796875 -0.046875 L 1.734375 -2.34375 L 1.109375 -2.34375 L 1.109375 -0.0625 C 1.109375 -0.0195312 1.082031 0 1.03125 0 L 0.078125 0 C 0.0234375 0 0 -0.0195312 0 -0.0625 L 0 -3.421875 L 1.953125 -3.421875 C 2.015625 -3.421875 2.09375 -3.421875 2.1875 -3.421875 C 2.28125 -3.429688 2.375 -3.457031 2.46875 -3.5 C 2.5625 -3.550781 2.640625 -3.617188 2.703125 -3.703125 C 2.773438 -3.796875 2.8125 -3.921875 2.8125 -4.078125 C 2.8125 -4.242188 2.773438 -4.367188 2.703125 -4.453125 C 2.628906 -4.546875 2.539062 -4.613281 2.4375 -4.65625 C 2.34375 -4.695312 2.25 -4.722656 2.15625 -4.734375 C 2.0625 -4.753906 1.992188 -4.765625 1.953125 -4.765625 L 0 -4.765625 L 0 -5.75 C 0 -5.789062 0.0234375 -5.8125 0.078125 -5.8125 L 1.953125 -5.8125 C 2.023438 -5.8125 2.132812 -5.804688 2.28125 -5.796875 C 2.425781 -5.785156 2.59375 -5.75 2.78125 -5.6875 C 2.96875 -5.632812 3.144531 -5.546875 3.3125 -5.421875 C 3.488281 -5.304688 3.632812 -5.140625 3.75 -4.921875 C 3.863281 -4.703125 3.921875 -4.421875 3.921875 -4.078125 C 3.921875 -3.785156 3.867188 -3.535156 3.765625 -3.328125 C 3.671875 -3.117188 3.539062 -2.945312 3.375 -2.8125 C 3.21875 -2.6875 3.039062 -2.585938 2.84375 -2.515625 C 3.03125 -2.109375 3.21875 -1.703125 3.40625 -1.296875 C 3.601562 -0.898438 3.789062 -0.5 3.96875 -0.09375 Z M 3.96875 -0.09375 "/></g></g></g><g fill="#ffffff" fill-opacity="1"><g transform="translate(142.619461, 74.22266)"><g><path d="M 4.28125 -5.8125 C 4.332031 -5.8125 4.359375 -5.789062 4.359375 -5.75 L 4.359375 -1.9375 C 4.359375 -1.53125 4.257812 -1.179688 4.0625 -0.890625 C 3.875 -0.597656 3.613281 -0.375 3.28125 -0.21875 C 2.957031 -0.0703125 2.585938 0 2.171875 0 C 1.773438 0 1.410156 -0.078125 1.078125 -0.234375 C 0.753906 -0.390625 0.492188 -0.613281 0.296875 -0.90625 C 0.0976562 -1.195312 0 -1.539062 0 -1.9375 L 0 -4.765625 L 1.09375 -4.765625 L 1.09375 -1.953125 C 1.125 -1.660156 1.242188 -1.4375 1.453125 -1.28125 C 1.671875 -1.132812 1.910156 -1.0625 2.171875 -1.0625 C 2.359375 -1.0625 2.535156 -1.09375 2.703125 -1.15625 C 2.867188 -1.21875 3.003906 -1.316406 3.109375 -1.453125 C 3.210938 -1.585938 3.265625 -1.75 3.265625 -1.9375 L 3.265625 -5.75 C 3.265625 -5.789062 3.289062 -5.8125 3.34375 -5.8125 Z M 4.28125 -5.8125 "/></g></g></g><g fill="#ffffff" fill-opacity="1"><g transform="translate(147.992235, 74.22266)"><g><path d="M 2.671875 -3.21875 C 2.972656 -3.082031 3.203125 -2.878906 3.359375 -2.609375 C 3.523438 -2.335938 3.609375 -2.03125 3.609375 -1.6875 C 3.609375 -1.320312 3.519531 -1.015625 3.34375 -0.765625 C 3.175781 -0.515625 2.957031 -0.320312 2.6875 -0.1875 C 2.414062 -0.0625 2.125 0 1.8125 0 C 1.8125 0 1.804688 0 1.796875 0 L 1.796875 -1.046875 C 1.804688 -1.046875 1.8125 -1.046875 1.8125 -1.046875 C 2 -1.046875 2.164062 -1.101562 2.3125 -1.21875 C 2.457031 -1.34375 2.53125 -1.5 2.53125 -1.6875 C 2.53125 -1.832031 2.492188 -1.957031 2.421875 -2.0625 C 2.347656 -2.164062 2.253906 -2.242188 2.140625 -2.296875 C 2.023438 -2.359375 1.914062 -2.390625 1.8125 -2.390625 C 1.78125 -2.390625 1.679688 -2.398438 1.515625 -2.421875 C 1.347656 -2.441406 1.15625 -2.5 0.9375 -2.59375 C 0.644531 -2.726562 0.414062 -2.921875 0.25 -3.171875 C 0.0820312 -3.421875 0 -3.71875 0 -4.0625 C 0 -4.425781 0.0820312 -4.738281 0.25 -5 C 0.425781 -5.257812 0.648438 -5.457031 0.921875 -5.59375 C 1.203125 -5.738281 1.5 -5.8125 1.8125 -5.8125 C 2.144531 -5.8125 2.441406 -5.738281 2.703125 -5.59375 C 2.972656 -5.457031 3.1875 -5.265625 3.34375 -5.015625 C 3.5 -4.773438 3.582031 -4.488281 3.59375 -4.15625 C 3.59375 -4.144531 3.582031 -4.128906 3.5625 -4.109375 C 3.550781 -4.097656 3.535156 -4.09375 3.515625 -4.09375 L 2.59375 -4.09375 C 2.582031 -4.09375 2.566406 -4.097656 2.546875 -4.109375 C 2.523438 -4.128906 2.515625 -4.144531 2.515625 -4.15625 C 2.515625 -4.363281 2.441406 -4.515625 2.296875 -4.609375 C 2.160156 -4.710938 2 -4.765625 1.8125 -4.765625 C 1.613281 -4.765625 1.441406 -4.703125 1.296875 -4.578125 C 1.148438 -4.460938 1.078125 -4.289062 1.078125 -4.0625 C 1.078125 -3.851562 1.148438 -3.691406 1.296875 -3.578125 C 1.453125 -3.472656 1.625 -3.421875 1.8125 -3.421875 C 1.820312 -3.421875 1.867188 -3.414062 1.953125 -3.40625 C 2.035156 -3.40625 2.140625 -3.390625 2.265625 -3.359375 C 2.398438 -3.335938 2.535156 -3.289062 2.671875 -3.21875 Z M 2.671875 -3.21875 "/></g></g></g><g fill="#ffffff" fill-opacity="1"><g transform="translate(152.580868, 74.22266)"><g><path d="M 1.203125 -3.703125 L 2.296875 -3.703125 L 2.296875 -0.0625 C 2.296875 -0.0195312 2.269531 0 2.21875 0 L 1.28125 0 C 1.226562 0 1.203125 -0.0195312 1.203125 -0.0625 Z M 0.078125 -4.8125 C 0.0234375 -4.8125 0 -4.832031 0 -4.875 L 0 -5.75 C 0 -5.789062 0.0234375 -5.8125 0.078125 -5.8125 L 3.421875 -5.8125 C 3.472656 -5.8125 3.5 -5.789062 3.5 -5.75 L 3.5 -4.875 C 3.5 -4.832031 3.472656 -4.8125 3.421875 -4.8125 Z M 0.078125 -4.8125 "/></g></g></g><g fill="#ffffff" fill-opacity="1"><g transform="translate(157.046075, 74.22266)"><g><path d="M 2.765625 -1.078125 L 2.765625 0 L 0.078125 0 C 0.0234375 0 0 -0.0195312 0 -0.0625 L 0 -5.75 C 0 -5.789062 0.0234375 -5.8125 0.078125 -5.8125 L 2.765625 -5.8125 L 2.765625 -4.765625 L 1.109375 -4.765625 L 1.109375 -3.4375 L 3.390625 -3.4375 C 3.441406 -3.4375 3.46875 -3.414062 3.46875 -3.375 L 3.46875 -2.453125 C 3.46875 -2.410156 3.441406 -2.390625 3.390625 -2.390625 L 1.109375 -2.390625 L 1.109375 -1.078125 Z M 2.765625 -1.078125 "/></g></g></g><g fill="#ffffff" fill-opacity="1"><g transform="translate(161.489504, 74.22266)"><g><path d="M 1.03125 -5.8125 C 1.3125 -5.8125 1.609375 -5.789062 1.921875 -5.75 C 2.234375 -5.71875 2.535156 -5.644531 2.828125 -5.53125 C 3.128906 -5.414062 3.398438 -5.25 3.640625 -5.03125 C 3.878906 -4.820312 4.070312 -4.546875 4.21875 -4.203125 C 4.363281 -3.859375 4.4375 -3.425781 4.4375 -2.90625 C 4.4375 -2.40625 4.363281 -1.984375 4.21875 -1.640625 C 4.082031 -1.304688 3.894531 -1.03125 3.65625 -0.8125 C 3.414062 -0.59375 3.144531 -0.421875 2.84375 -0.296875 C 2.550781 -0.179688 2.25 -0.101562 1.9375 -0.0625 C 1.625 -0.0195312 1.320312 0 1.03125 0 L 0.078125 0 C 0.0234375 0 0 -0.0195312 0 -0.0625 L 0 -2.34375 L 1.109375 -2.34375 L 1.109375 -1.0625 C 1.253906 -1.0625 1.421875 -1.066406 1.609375 -1.078125 C 1.796875 -1.085938 1.988281 -1.125 2.1875 -1.1875 C 2.382812 -1.25 2.566406 -1.34375 2.734375 -1.46875 C 2.910156 -1.601562 3.050781 -1.785156 3.15625 -2.015625 C 3.257812 -2.253906 3.3125 -2.550781 3.3125 -2.90625 C 3.3125 -3.363281 3.210938 -3.734375 3.015625 -4.015625 C 2.828125 -4.296875 2.566406 -4.492188 2.234375 -4.609375 C 1.910156 -4.722656 1.535156 -4.769531 1.109375 -4.75 L 1.109375 -3.46875 L 0 -3.46875 L 0 -5.75 C 0 -5.789062 0.0234375 -5.8125 0.078125 -5.8125 Z M 1.03125 -5.8125 "/></g></g></g><g fill="#ffffff" fill-opacity="1"><g transform="translate(166.942137, 74.22266)"><g/></g></g><g fill="#ffffff" fill-opacity="1"><g transform="translate(169.555911, 74.22266)"><g><path d="M 1.109375 -3.296875 L 0 -3.296875 L 0 -5.75 C 0 -5.789062 0.0234375 -5.8125 0.078125 -5.8125 L 1.03125 -5.8125 C 1.082031 -5.8125 1.109375 -5.789062 1.109375 -5.75 Z M 4.34375 -5.8125 C 4.394531 -5.8125 4.421875 -5.789062 4.421875 -5.75 L 4.421875 -0.0625 C 4.421875 -0.0195312 4.394531 0 4.34375 0 L 3.390625 0 C 3.335938 0 3.3125 -0.0195312 3.3125 -0.0625 L 3.3125 -1.09375 L 1.109375 -1.09375 L 1.109375 -0.0625 C 1.109375 -0.0195312 1.082031 0 1.03125 0 L 0.078125 0 C 0.0234375 0 0 -0.0195312 0 -0.0625 L 0 -2.171875 L 3.3125 -2.171875 L 3.3125 -5.75 C 3.3125 -5.789062 3.335938 -5.8125 3.390625 -5.8125 Z M 4.34375 -5.8125 "/></g></g></g><g fill="#ffffff" fill-opacity="1"><g transform="translate(175.001286, 74.22266)"><g><path d="M 3.34375 -2.890625 C 3.34375 -2.742188 3.289062 -2.613281 3.1875 -2.5 C 3.082031 -2.394531 2.953125 -2.34375 2.796875 -2.34375 C 2.648438 -2.34375 2.519531 -2.394531 2.40625 -2.5 C 2.300781 -2.613281 2.25 -2.742188 2.25 -2.890625 C 2.25 -3.046875 2.300781 -3.175781 2.40625 -3.28125 C 2.519531 -3.382812 2.648438 -3.4375 2.796875 -3.4375 C 2.953125 -3.4375 3.082031 -3.382812 3.1875 -3.28125 C 3.289062 -3.175781 3.34375 -3.046875 3.34375 -2.890625 Z M 5.59375 -2.90625 C 5.59375 -2.550781 5.535156 -2.195312 5.421875 -1.84375 C 5.304688 -1.5 5.128906 -1.1875 4.890625 -0.90625 C 4.660156 -0.632812 4.367188 -0.414062 4.015625 -0.25 C 3.671875 -0.0820312 3.265625 0 2.796875 0 C 2.328125 0 1.914062 -0.0820312 1.5625 -0.25 C 1.21875 -0.414062 0.925781 -0.632812 0.6875 -0.90625 C 0.457031 -1.1875 0.285156 -1.5 0.171875 -1.84375 C 0.0546875 -2.195312 0 -2.550781 0 -2.90625 C 0 -3.269531 0.0546875 -3.625 0.171875 -3.96875 C 0.285156 -4.3125 0.457031 -4.617188 0.6875 -4.890625 C 0.925781 -5.171875 1.21875 -5.394531 1.5625 -5.5625 C 1.914062 -5.726562 2.328125 -5.8125 2.796875 -5.8125 C 3.265625 -5.8125 3.671875 -5.726562 4.015625 -5.5625 C 4.367188 -5.394531 4.660156 -5.171875 4.890625 -4.890625 C 5.128906 -4.617188 5.304688 -4.3125 5.421875 -3.96875 C 5.535156 -3.625 5.59375 -3.269531 5.59375 -2.90625 Z M 4.5 -2.890625 C 4.5 -3.128906 4.460938 -3.359375 4.390625 -3.578125 C 4.316406 -3.804688 4.207031 -4.007812 4.0625 -4.1875 C 3.925781 -4.375 3.75 -4.519531 3.53125 -4.625 C 3.320312 -4.726562 3.078125 -4.78125 2.796875 -4.78125 C 2.515625 -4.78125 2.265625 -4.726562 2.046875 -4.625 C 1.835938 -4.519531 1.660156 -4.375 1.515625 -4.1875 C 1.378906 -4.007812 1.273438 -3.804688 1.203125 -3.578125 C 1.128906 -3.359375 1.09375 -3.128906 1.09375 -2.890625 C 1.09375 -2.660156 1.128906 -2.429688 1.203125 -2.203125 C 1.273438 -1.984375 1.378906 -1.785156 1.515625 -1.609375 C 1.660156 -1.429688 1.835938 -1.285156 2.046875 -1.171875 C 2.265625 -1.066406 2.515625 -1.015625 2.796875 -1.015625 C 3.078125 -1.015625 3.320312 -1.066406 3.53125 -1.171875 C 3.75 -1.285156 3.925781 -1.429688 4.0625 -1.609375 C 4.207031 -1.785156 4.316406 -1.984375 4.390625 -2.203125 C 4.460938 -2.429688 4.5 -2.660156 4.5 -2.890625 Z M 4.5 -2.890625 "/></g></g></g><g fill="#ffffff" fill-opacity="1"><g transform="translate(181.666432, 74.22266)"><g><path d="M 5.203125 -1.40625 L 5.203125 -3.25 L 3.71875 -0.28125 C 3.707031 -0.25 3.6875 -0.234375 3.65625 -0.234375 L 2.765625 -0.234375 C 2.722656 -0.234375 2.695312 -0.25 2.6875 -0.28125 L 1.109375 -3.328125 L 1.109375 -0.0625 C 1.109375 -0.0195312 1.082031 0 1.03125 0 L 0.078125 0 C 0.0234375 0 0 -0.0195312 0 -0.0625 L 0 -5.75 C 0 -5.789062 0.0234375 -5.8125 0.078125 -5.8125 L 1.046875 -5.8125 C 1.085938 -5.8125 1.113281 -5.796875 1.125 -5.765625 L 3.203125 -1.515625 L 5.1875 -5.765625 C 5.207031 -5.796875 5.234375 -5.8125 5.265625 -5.8125 L 6.234375 -5.8125 C 6.285156 -5.8125 6.3125 -5.789062 6.3125 -5.75 L 6.3125 -1.40625 Z M 5.203125 -1.40625 "/></g></g></g><g fill="#ffffff" fill-opacity="1"><g transform="translate(189.086667, 74.22266)"><g><path d="M 2.765625 -1.078125 L 2.765625 0 L 0.078125 0 C 0.0234375 0 0 -0.0195312 0 -0.0625 L 0 -5.75 C 0 -5.789062 0.0234375 -5.8125 0.078125 -5.8125 L 2.765625 -5.8125 L 2.765625 -4.765625 L 1.109375 -4.765625 L 1.109375 -3.4375 L 3.390625 -3.4375 C 3.441406 -3.4375 3.46875 -3.414062 3.46875 -3.375 L 3.46875 -2.453125 C 3.46875 -2.410156 3.441406 -2.390625 3.390625 -2.390625 L 1.109375 -2.390625 L 1.109375 -1.078125 Z M 2.765625 -1.078125 "/></g></g></g><g fill="#ffffff" fill-opacity="1"><g transform="translate(193.5301, 74.22266)"><g/></g></g><g fill="#ffffff" fill-opacity="1"><g transform="translate(196.143879, 74.22266)"><g><path d="M 2.671875 -3.21875 C 2.972656 -3.082031 3.203125 -2.878906 3.359375 -2.609375 C 3.523438 -2.335938 3.609375 -2.03125 3.609375 -1.6875 C 3.609375 -1.320312 3.519531 -1.015625 3.34375 -0.765625 C 3.175781 -0.515625 2.957031 -0.320312 2.6875 -0.1875 C 2.414062 -0.0625 2.125 0 1.8125 0 C 1.8125 0 1.804688 0 1.796875 0 L 1.796875 -1.046875 C 1.804688 -1.046875 1.8125 -1.046875 1.8125 -1.046875 C 2 -1.046875 2.164062 -1.101562 2.3125 -1.21875 C 2.457031 -1.34375 2.53125 -1.5 2.53125 -1.6875 C 2.53125 -1.832031 2.492188 -1.957031 2.421875 -2.0625 C 2.347656 -2.164062 2.253906 -2.242188 2.140625 -2.296875 C 2.023438 -2.359375 1.914062 -2.390625 1.8125 -2.390625 C 1.78125 -2.390625 1.679688 -2.398438 1.515625 -2.421875 C 1.347656 -2.441406 1.15625 -2.5 0.9375 -2.59375 C 0.644531 -2.726562 0.414062 -2.921875 0.25 -3.171875 C 0.0820312 -3.421875 0 -3.71875 0 -4.0625 C 0 -4.425781 0.0820312 -4.738281 0.25 -5 C 0.425781 -5.257812 0.648438 -5.457031 0.921875 -5.59375 C 1.203125 -5.738281 1.5 -5.8125 1.8125 -5.8125 C 2.144531 -5.8125 2.441406 -5.738281 2.703125 -5.59375 C 2.972656 -5.457031 3.1875 -5.265625 3.34375 -5.015625 C 3.5 -4.773438 3.582031 -4.488281 3.59375 -4.15625 C 3.59375 -4.144531 3.582031 -4.128906 3.5625 -4.109375 C 3.550781 -4.097656 3.535156 -4.09375 3.515625 -4.09375 L 2.59375 -4.09375 C 2.582031 -4.09375 2.566406 -4.097656 2.546875 -4.109375 C 2.523438 -4.128906 2.515625 -4.144531 2.515625 -4.15625 C 2.515625 -4.363281 2.441406 -4.515625 2.296875 -4.609375 C 2.160156 -4.710938 2 -4.765625 1.8125 -4.765625 C 1.613281 -4.765625 1.441406 -4.703125 1.296875 -4.578125 C 1.148438 -4.460938 1.078125 -4.289062 1.078125 -4.0625 C 1.078125 -3.851562 1.148438 -3.691406 1.296875 -3.578125 C 1.453125 -3.472656 1.625 -3.421875 1.8125 -3.421875 C 1.820312 -3.421875 1.867188 -3.414062 1.953125 -3.40625 C 2.035156 -3.40625 2.140625 -3.390625 2.265625 -3.359375 C 2.398438 -3.335938 2.535156 -3.289062 2.671875 -3.21875 Z M 2.671875 -3.21875 "/></g></g></g><g fill="#ffffff" fill-opacity="1"><g transform="translate(200.732516, 74.22266)"><g><path d="M 2.765625 -1.078125 L 2.765625 0 L 0.078125 0 C 0.0234375 0 0 -0.0195312 0 -0.0625 L 0 -5.75 C 0 -5.789062 0.0234375 -5.8125 0.078125 -5.8125 L 2.765625 -5.8125 L 2.765625 -4.765625 L 1.109375 -4.765625 L 1.109375 -3.4375 L 3.390625 -3.4375 C 3.441406 -3.4375 3.46875 -3.414062 3.46875 -3.375 L 3.46875 -2.453125 C 3.46875 -2.410156 3.441406 -2.390625 3.390625 -2.390625 L 1.109375 -2.390625 L 1.109375 -1.078125 Z M 2.765625 -1.078125 "/></g></g></g><g fill="#ffffff" fill-opacity="1"><g transform="translate(205.17595, 74.22266)"><g><path d="M 3.328125 -1.0625 L 4.4375 -1.0625 L 4.4375 -0.0625 C 4.4375 -0.0195312 4.410156 0 4.359375 0 L 3.40625 0 C 3.113281 0 2.8125 -0.0195312 2.5 -0.0625 C 2.1875 -0.101562 1.878906 -0.179688 1.578125 -0.296875 C 1.285156 -0.421875 1.019531 -0.59375 0.78125 -0.8125 C 0.539062 -1.03125 0.347656 -1.304688 0.203125 -1.640625 C 0.0664062 -1.984375 0 -2.40625 0 -2.90625 C 0 -3.414062 0.0664062 -3.84375 0.203125 -4.1875 C 0.347656 -4.539062 0.539062 -4.820312 0.78125 -5.03125 C 1.019531 -5.25 1.289062 -5.414062 1.59375 -5.53125 C 1.894531 -5.644531 2.203125 -5.71875 2.515625 -5.75 C 2.828125 -5.789062 3.125 -5.8125 3.40625 -5.8125 L 4.359375 -5.8125 C 4.410156 -5.8125 4.4375 -5.789062 4.4375 -5.75 L 4.4375 -3.46875 L 3.328125 -3.46875 L 3.328125 -4.75 C 2.898438 -4.769531 2.519531 -4.722656 2.1875 -4.609375 C 1.851562 -4.492188 1.59375 -4.296875 1.40625 -4.015625 C 1.21875 -3.734375 1.125 -3.363281 1.125 -2.90625 C 1.125 -2.550781 1.175781 -2.253906 1.28125 -2.015625 C 1.382812 -1.785156 1.519531 -1.601562 1.6875 -1.46875 C 1.863281 -1.34375 2.050781 -1.25 2.25 -1.1875 C 2.445312 -1.125 2.640625 -1.085938 2.828125 -1.078125 C 3.015625 -1.066406 3.179688 -1.0625 3.328125 -1.0625 Z M 3.328125 -1.0625 "/></g></g></g><g fill="#ffffff" fill-opacity="1"><g transform="translate(210.628587, 74.22266)"><g><path d="M 4.28125 -5.8125 C 4.332031 -5.8125 4.359375 -5.789062 4.359375 -5.75 L 4.359375 -1.9375 C 4.359375 -1.53125 4.257812 -1.179688 4.0625 -0.890625 C 3.875 -0.597656 3.613281 -0.375 3.28125 -0.21875 C 2.957031 -0.0703125 2.585938 0 2.171875 0 C 1.773438 0 1.410156 -0.078125 1.078125 -0.234375 C 0.753906 -0.390625 0.492188 -0.613281 0.296875 -0.90625 C 0.0976562 -1.195312 0 -1.539062 0 -1.9375 L 0 -4.765625 L 1.09375 -4.765625 L 1.09375 -1.953125 C 1.125 -1.660156 1.242188 -1.4375 1.453125 -1.28125 C 1.671875 -1.132812 1.910156 -1.0625 2.171875 -1.0625 C 2.359375 -1.0625 2.535156 -1.09375 2.703125 -1.15625 C 2.867188 -1.21875 3.003906 -1.316406 3.109375 -1.453125 C 3.210938 -1.585938 3.265625 -1.75 3.265625 -1.9375 L 3.265625 -5.75 C 3.265625 -5.789062 3.289062 -5.8125 3.34375 -5.8125 Z M 4.28125 -5.8125 "/></g></g></g><g fill="#ffffff" fill-opacity="1"><g transform="translate(216.001365, 74.22266)"><g><path d="M 3.96875 -0.09375 C 3.976562 -0.0703125 3.972656 -0.0507812 3.953125 -0.03125 C 3.941406 -0.0078125 3.925781 0 3.90625 0 L 2.859375 0 C 2.816406 0 2.796875 -0.015625 2.796875 -0.046875 L 1.734375 -2.34375 L 1.109375 -2.34375 L 1.109375 -0.0625 C 1.109375 -0.0195312 1.082031 0 1.03125 0 L 0.078125 0 C 0.0234375 0 0 -0.0195312 0 -0.0625 L 0 -3.421875 L 1.953125 -3.421875 C 2.015625 -3.421875 2.09375 -3.421875 2.1875 -3.421875 C 2.28125 -3.429688 2.375 -3.457031 2.46875 -3.5 C 2.5625 -3.550781 2.640625 -3.617188 2.703125 -3.703125 C 2.773438 -3.796875 2.8125 -3.921875 2.8125 -4.078125 C 2.8125 -4.242188 2.773438 -4.367188 2.703125 -4.453125 C 2.628906 -4.546875 2.539062 -4.613281 2.4375 -4.65625 C 2.34375 -4.695312 2.25 -4.722656 2.15625 -4.734375 C 2.0625 -4.753906 1.992188 -4.765625 1.953125 -4.765625 L 0 -4.765625 L 0 -5.75 C 0 -5.789062 0.0234375 -5.8125 0.078125 -5.8125 L 1.953125 -5.8125 C 2.023438 -5.8125 2.132812 -5.804688 2.28125 -5.796875 C 2.425781 -5.785156 2.59375 -5.75 2.78125 -5.6875 C 2.96875 -5.632812 3.144531 -5.546875 3.3125 -5.421875 C 3.488281 -5.304688 3.632812 -5.140625 3.75 -4.921875 C 3.863281 -4.703125 3.921875 -4.421875 3.921875 -4.078125 C 3.921875 -3.785156 3.867188 -3.535156 3.765625 -3.328125 C 3.671875 -3.117188 3.539062 -2.945312 3.375 -2.8125 C 3.21875 -2.6875 3.039062 -2.585938 2.84375 -2.515625 C 3.03125 -2.109375 3.21875 -1.703125 3.40625 -1.296875 C 3.601562 -0.898438 3.789062 -0.5 3.96875 -0.09375 Z M 3.96875 -0.09375 "/></g></g></g><g fill="#ffffff" fill-opacity="1"><g transform="translate(220.974817, 74.22266)"><g><path d="M 2.375 -1 C 2.425781 -1 2.453125 -0.976562 2.453125 -0.9375 L 2.453125 -0.0625 C 2.453125 -0.0195312 2.425781 0 2.375 0 L 0.078125 0 C 0.0234375 0 0 -0.0195312 0 -0.0625 L 0 -0.9375 C 0 -0.976562 0.0234375 -1 0.078125 -1 L 0.671875 -1 L 0.671875 -5.8125 L 1.78125 -5.8125 L 1.78125 -1 Z M 2.375 -1 "/></g></g></g><g fill="#ffffff" fill-opacity="1"><g transform="translate(224.343693, 74.22266)"><g><path d="M 1.203125 -3.703125 L 2.296875 -3.703125 L 2.296875 -0.0625 C 2.296875 -0.0195312 2.269531 0 2.21875 0 L 1.28125 0 C 1.226562 0 1.203125 -0.0195312 1.203125 -0.0625 Z M 0.078125 -4.8125 C 0.0234375 -4.8125 0 -4.832031 0 -4.875 L 0 -5.75 C 0 -5.789062 0.0234375 -5.8125 0.078125 -5.8125 L 3.421875 -5.8125 C 3.472656 -5.8125 3.5 -5.789062 3.5 -5.75 L 3.5 -4.875 C 3.5 -4.832031 3.472656 -4.8125 3.421875 -4.8125 Z M 0.078125 -4.8125 "/></g></g></g><g fill="#ffffff" fill-opacity="1"><g transform="translate(228.808905, 74.22266)"><g><path d="M 3.296875 -4.703125 L 4.65625 -4.703125 L 3.25 -2.734375 L 3.25 -0.0625 C 3.25 -0.0195312 3.222656 0 3.171875 0 L 2.21875 0 C 2.164062 0 2.140625 -0.0195312 2.140625 -0.0625 L 2.140625 -2.734375 C 1.785156 -3.234375 1.429688 -3.726562 1.078125 -4.21875 C 0.722656 -4.71875 0.367188 -5.210938 0.015625 -5.703125 C -0.00390625 -5.722656 -0.0078125 -5.742188 0 -5.765625 C 0.0195312 -5.796875 0.0507812 -5.8125 0.09375 -5.8125 L 1.234375 -5.8125 C 1.265625 -5.8125 1.289062 -5.804688 1.3125 -5.796875 L 2.6875 -3.84375 Z M 3.296875 -4.703125 "/></g></g></g><g fill="#ffffff" fill-opacity="1"><g transform="translate(234.486622, 74.22266)"><g/></g></g><g fill="#ffffff" fill-opacity="1"><g transform="translate(237.100401, 74.22266)"><g><path d="M 1.953125 -5.8125 C 2.003906 -5.8125 2.101562 -5.804688 2.25 -5.796875 C 2.394531 -5.785156 2.554688 -5.75 2.734375 -5.6875 C 2.921875 -5.632812 3.101562 -5.546875 3.28125 -5.421875 C 3.46875 -5.296875 3.617188 -5.125 3.734375 -4.90625 C 3.859375 -4.6875 3.921875 -4.40625 3.921875 -4.0625 C 3.921875 -3.78125 3.875 -3.539062 3.78125 -3.34375 C 3.695312 -3.144531 3.582031 -2.984375 3.4375 -2.859375 C 3.289062 -2.734375 3.140625 -2.632812 2.984375 -2.5625 C 2.828125 -2.488281 2.671875 -2.4375 2.515625 -2.40625 C 2.367188 -2.375 2.242188 -2.351562 2.140625 -2.34375 C 2.035156 -2.34375 1.972656 -2.34375 1.953125 -2.34375 L 1.09375 -2.34375 L 1.09375 -0.0625 C 1.09375 -0.0195312 1.066406 0 1.015625 0 L 0.078125 0 C 0.0234375 0 0 -0.0195312 0 -0.0625 L 0 -3.421875 L 1.953125 -3.421875 C 1.992188 -3.421875 2.054688 -3.421875 2.140625 -3.421875 C 2.234375 -3.429688 2.332031 -3.457031 2.4375 -3.5 C 2.539062 -3.539062 2.628906 -3.601562 2.703125 -3.6875 C 2.773438 -3.78125 2.8125 -3.90625 2.8125 -4.0625 C 2.8125 -4.226562 2.773438 -4.351562 2.703125 -4.4375 C 2.628906 -4.53125 2.539062 -4.597656 2.4375 -4.640625 C 2.332031 -4.679688 2.234375 -4.707031 2.140625 -4.71875 C 2.046875 -4.738281 1.984375 -4.75 1.953125 -4.75 L 0 -4.75 L 0 -5.75 C 0 -5.789062 0.0234375 -5.8125 0.078125 -5.8125 Z M 1.953125 -5.8125 "/></g></g></g><g fill="#ffffff" fill-opacity="1"><g transform="translate(242.008498, 74.22266)"><g><path d="M 4.5625 -0.09375 C 4.570312 -0.0703125 4.566406 -0.0507812 4.546875 -0.03125 C 4.535156 -0.0078125 4.519531 0 4.5 0 L 3.5 0 C 3.457031 0 3.429688 -0.015625 3.421875 -0.046875 L 2.28125 -3.28125 L 1.140625 -0.046875 C 1.140625 -0.015625 1.117188 0 1.078125 0 L 0.078125 0 C 0.046875 0 0.0234375 -0.0078125 0.015625 -0.03125 C 0.00390625 -0.0507812 0 -0.0703125 0 -0.09375 L 2.203125 -5.765625 C 2.210938 -5.796875 2.238281 -5.8125 2.28125 -5.8125 C 2.320312 -5.8125 2.347656 -5.796875 2.359375 -5.765625 Z M 4.5625 -0.09375 "/></g></g></g><g fill="#ffffff" fill-opacity="1"><g transform="translate(247.599082, 74.22266)"><g><path d="M 3.96875 -0.09375 C 3.976562 -0.0703125 3.972656 -0.0507812 3.953125 -0.03125 C 3.941406 -0.0078125 3.925781 0 3.90625 0 L 2.859375 0 C 2.816406 0 2.796875 -0.015625 2.796875 -0.046875 L 1.734375 -2.34375 L 1.109375 -2.34375 L 1.109375 -0.0625 C 1.109375 -0.0195312 1.082031 0 1.03125 0 L 0.078125 0 C 0.0234375 0 0 -0.0195312 0 -0.0625 L 0 -3.421875 L 1.953125 -3.421875 C 2.015625 -3.421875 2.09375 -3.421875 2.1875 -3.421875 C 2.28125 -3.429688 2.375 -3.457031 2.46875 -3.5 C 2.5625 -3.550781 2.640625 -3.617188 2.703125 -3.703125 C 2.773438 -3.796875 2.8125 -3.921875 2.8125 -4.078125 C 2.8125 -4.242188 2.773438 -4.367188 2.703125 -4.453125 C 2.628906 -4.546875 2.539062 -4.613281 2.4375 -4.65625 C 2.34375 -4.695312 2.25 -4.722656 2.15625 -4.734375 C 2.0625 -4.753906 1.992188 -4.765625 1.953125 -4.765625 L 0 -4.765625 L 0 -5.75 C 0 -5.789062 0.0234375 -5.8125 0.078125 -5.8125 L 1.953125 -5.8125 C 2.023438 -5.8125 2.132812 -5.804688 2.28125 -5.796875 C 2.425781 -5.785156 2.59375 -5.75 2.78125 -5.6875 C 2.96875 -5.632812 3.144531 -5.546875 3.3125 -5.421875 C 3.488281 -5.304688 3.632812 -5.140625 3.75 -4.921875 C 3.863281 -4.703125 3.921875 -4.421875 3.921875 -4.078125 C 3.921875 -3.785156 3.867188 -3.535156 3.765625 -3.328125 C 3.671875 -3.117188 3.539062 -2.945312 3.375 -2.8125 C 3.21875 -2.6875 3.039062 -2.585938 2.84375 -2.515625 C 3.03125 -2.109375 3.21875 -1.703125 3.40625 -1.296875 C 3.601562 -0.898438 3.789062 -0.5 3.96875 -0.09375 Z M 3.96875 -0.09375 "/></g></g></g><g fill="#ffffff" fill-opacity="1"><g transform="translate(252.572533, 74.22266)"><g><path d="M 1.203125 -3.703125 L 2.296875 -3.703125 L 2.296875 -0.0625 C 2.296875 -0.0195312 2.269531 0 2.21875 0 L 1.28125 0 C 1.226562 0 1.203125 -0.0195312 1.203125 -0.0625 Z M 0.078125 -4.8125 C 0.0234375 -4.8125 0 -4.832031 0 -4.875 L 0 -5.75 C 0 -5.789062 0.0234375 -5.8125 0.078125 -5.8125 L 3.421875 -5.8125 C 3.472656 -5.8125 3.5 -5.789062 3.5 -5.75 L 3.5 -4.875 C 3.5 -4.832031 3.472656 -4.8125 3.421875 -4.8125 Z M 0.078125 -4.8125 "/></g></g></g><g fill="#ffffff" fill-opacity="1"><g transform="translate(257.037745, 74.22266)"><g><path d="M 4.8125 -5.8125 C 4.863281 -5.8125 4.890625 -5.789062 4.890625 -5.75 L 4.890625 -0.0625 C 4.890625 -0.0195312 4.863281 0 4.8125 0 L 3.84375 0 C 3.84375 0 3.832031 0 3.8125 0 C 3.800781 -0.0078125 3.789062 -0.015625 3.78125 -0.015625 L 1.109375 -3.84375 L 1.109375 -1.390625 L 0 -1.390625 L 0 -5.75 C 0 -5.789062 0.0234375 -5.8125 0.078125 -5.8125 L 1.03125 -5.8125 C 1.039062 -5.8125 1.050781 -5.8125 1.0625 -5.8125 C 1.082031 -5.8125 1.097656 -5.804688 1.109375 -5.796875 L 3.78125 -1.96875 L 3.78125 -5.75 C 3.78125 -5.789062 3.8125 -5.8125 3.875 -5.8125 Z M 4.8125 -5.8125 "/></g></g></g><g fill="#ffffff" fill-opacity="1"><g transform="translate(262.969577, 74.22266)"><g><path d="M 2.765625 -1.078125 L 2.765625 0 L 0.078125 0 C 0.0234375 0 0 -0.0195312 0 -0.0625 L 0 -5.75 C 0 -5.789062 0.0234375 -5.8125 0.078125 -5.8125 L 2.765625 -5.8125 L 2.765625 -4.765625 L 1.109375 -4.765625 L 1.109375 -3.4375 L 3.390625 -3.4375 C 3.441406 -3.4375 3.46875 -3.414062 3.46875 -3.375 L 3.46875 -2.453125 C 3.46875 -2.410156 3.441406 -2.390625 3.390625 -2.390625 L 1.109375 -2.390625 L 1.109375 -1.078125 Z M 2.765625 -1.078125 "/></g></g></g><g fill="#ffffff" fill-opacity="1"><g transform="translate(267.413011, 74.22266)"><g><path d="M 3.96875 -0.09375 C 3.976562 -0.0703125 3.972656 -0.0507812 3.953125 -0.03125 C 3.941406 -0.0078125 3.925781 0 3.90625 0 L 2.859375 0 C 2.816406 0 2.796875 -0.015625 2.796875 -0.046875 L 1.734375 -2.34375 L 1.109375 -2.34375 L 1.109375 -0.0625 C 1.109375 -0.0195312 1.082031 0 1.03125 0 L 0.078125 0 C 0.0234375 0 0 -0.0195312 0 -0.0625 L 0 -3.421875 L 1.953125 -3.421875 C 2.015625 -3.421875 2.09375 -3.421875 2.1875 -3.421875 C 2.28125 -3.429688 2.375 -3.457031 2.46875 -3.5 C 2.5625 -3.550781 2.640625 -3.617188 2.703125 -3.703125 C 2.773438 -3.796875 2.8125 -3.921875 2.8125 -4.078125 C 2.8125 -4.242188 2.773438 -4.367188 2.703125 -4.453125 C 2.628906 -4.546875 2.539062 -4.613281 2.4375 -4.65625 C 2.34375 -4.695312 2.25 -4.722656 2.15625 -4.734375 C 2.0625 -4.753906 1.992188 -4.765625 1.953125 -4.765625 L 0 -4.765625 L 0 -5.75 C 0 -5.789062 0.0234375 -5.8125 0.078125 -5.8125 L 1.953125 -5.8125 C 2.023438 -5.8125 2.132812 -5.804688 2.28125 -5.796875 C 2.425781 -5.785156 2.59375 -5.75 2.78125 -5.6875 C 2.96875 -5.632812 3.144531 -5.546875 3.3125 -5.421875 C 3.488281 -5.304688 3.632812 -5.140625 3.75 -4.921875 C 3.863281 -4.703125 3.921875 -4.421875 3.921875 -4.078125 C 3.921875 -3.785156 3.867188 -3.535156 3.765625 -3.328125 C 3.671875 -3.117188 3.539062 -2.945312 3.375 -2.8125 C 3.21875 -2.6875 3.039062 -2.585938 2.84375 -2.515625 C 3.03125 -2.109375 3.21875 -1.703125 3.40625 -1.296875 C 3.601562 -0.898438 3.789062 -0.5 3.96875 -0.09375 Z M 3.96875 -0.09375 "/></g></g></g></svg>