<svg xmlns="http://www.w3.org/2000/svg" xmlns:xlink="http://www.w3.org/1999/xlink" width="500" zoomAndPan="magnify" viewBox="0 0 375 374.999991" height="500" preserveAspectRatio="xMidYMid meet" version="1.0"><defs><g/></defs><rect x="-37.5" width="450" fill="#ffffff" y="-37.499999" height="449.999989" fill-opacity="1"/><rect x="-37.5" width="450" fill="#ffffff" y="-37.499999" height="449.999989" fill-opacity="1"/><rect x="-37.5" width="450" fill="#000000" y="-37.499999" height="449.999989" fill-opacity="1"/><g fill="#ffffff" fill-opacity="1"><g transform="translate(87.623469, 232.403371)"><g><path d="M 58.96875 -1.125 C 59.09375 -0.875 59.0625 -0.625 58.875 -0.375 C 58.6875 -0.125 58.4375 0 58.125 0 L 45.171875 0 C 44.734375 0 44.453125 -0.1875 44.328125 -0.5625 L 29.484375 -42.453125 L 14.84375 -0.5625 C 14.78125 -0.1875 14.460938 0 13.890625 0 L 1.03125 0 C 0.59375 0 0.296875 -0.125 0.140625 -0.375 C -0.015625 -0.625 -0.03125 -0.875 0.09375 -1.125 L 28.546875 -74.5625 C 28.671875 -74.9375 28.984375 -75.125 29.484375 -75.125 C 29.984375 -75.125 30.296875 -74.9375 30.421875 -74.5625 Z M 58.96875 -1.125 "/></g></g></g><g fill="#ffffff" fill-opacity="1"><g transform="translate(159.93229, 232.403371)"><g><path d="M 51.265625 -1.21875 C 51.390625 -0.90625 51.375 -0.625 51.21875 -0.375 C 51.0625 -0.125 50.796875 0 50.421875 0 L 37 0 C 36.5 0 36.1875 -0.1875 36.0625 -0.5625 L 22.34375 -30.328125 L 14.28125 -30.328125 L 14.28125 -0.84375 C 14.28125 -0.28125 13.929688 0 13.234375 0 L 0.9375 0 C 0.3125 0 0 -0.28125 0 -0.84375 L 0 -44.140625 L 25.265625 -44.140625 C 26.015625 -44.140625 27.015625 -44.203125 28.265625 -44.328125 C 29.515625 -44.453125 30.75 -44.796875 31.96875 -45.359375 C 33.195312 -45.921875 34.234375 -46.78125 35.078125 -47.9375 C 35.921875 -49.09375 36.34375 -50.707031 36.34375 -52.78125 C 36.34375 -54.84375 35.890625 -56.46875 34.984375 -57.65625 C 34.078125 -58.84375 32.960938 -59.703125 31.640625 -60.234375 C 30.328125 -60.765625 29.078125 -61.109375 27.890625 -61.265625 C 26.703125 -61.429688 25.828125 -61.515625 25.265625 -61.515625 L 0 -61.515625 L 0 -74.28125 C 0 -74.84375 0.3125 -75.125 0.9375 -75.125 L 25.265625 -75.125 C 26.140625 -75.125 27.546875 -75.046875 29.484375 -74.890625 C 31.421875 -74.734375 33.59375 -74.3125 36 -73.625 C 38.414062 -72.9375 40.734375 -71.804688 42.953125 -70.234375 C 45.179688 -68.671875 47.015625 -66.476562 48.453125 -63.65625 C 49.890625 -60.84375 50.609375 -57.21875 50.609375 -52.78125 C 50.609375 -48.957031 49.984375 -45.710938 48.734375 -43.046875 C 47.484375 -40.390625 45.804688 -38.21875 43.703125 -36.53125 C 41.609375 -34.84375 39.3125 -33.523438 36.8125 -32.578125 C 39.1875 -27.265625 41.609375 -22.007812 44.078125 -16.8125 C 46.554688 -11.613281 48.953125 -6.414062 51.265625 -1.21875 Z M 51.265625 -1.21875 "/></g></g></g><g fill="#ffffff" fill-opacity="1"><g transform="translate(224.25908, 232.403371)"><g><path d="M 59.90625 -1.40625 C 60.21875 -1.03125 60.28125 -0.703125 60.09375 -0.421875 C 59.90625 -0.140625 59.5625 0 59.0625 0 L 42.921875 0 C 42.546875 0 42.257812 -0.09375 42.0625 -0.28125 L 20.1875 -27.328125 C 19.875 -27.015625 19.171875 -26.242188 18.078125 -25.015625 C 16.984375 -23.796875 15.664062 -22.328125 14.125 -20.609375 C 12.59375 -18.890625 11.015625 -17.101562 9.390625 -15.25 C 7.765625 -13.40625 6.226562 -11.671875 4.78125 -10.046875 C 3.34375 -8.421875 2.1875 -7.101562 1.3125 -6.09375 C 0.4375 -5.09375 0 -4.59375 0 -4.59375 L 0 -74.28125 C 0 -74.84375 0.34375 -75.125 1.03125 -75.125 L 13.421875 -75.125 C 14.054688 -75.125 14.375 -74.84375 14.375 -74.28125 L 14.375 -40.09375 L 42.640625 -74.84375 C 42.828125 -75.03125 43.109375 -75.125 43.484375 -75.125 L 58.78125 -75.125 C 59.28125 -75.125 59.625 -74.96875 59.8125 -74.65625 C 60 -74.34375 59.9375 -74.03125 59.625 -73.71875 L 29.765625 -36.90625 Z M 59.90625 -1.40625 "/></g></g></g><path stroke-linecap="butt" transform="matrix(-1.760917, 0, 0, -1.760917, 336.175763, 129.860471)" fill="none" stroke-linejoin="miter" d="M -0.0000102365 5.000681 L 84.433096 5.000681 " stroke="#ffffff" stroke-width="10" stroke-opacity="1" stroke-miterlimit="4"/><path stroke-linecap="butt" transform="matrix(0, -1.760917, 1.760917, 0, 318.575609, 262.736174)" fill="none" stroke-linejoin="miter" d="M 0.0010216 4.999269 L 82.464274 4.999269 " stroke="#ffffff" stroke-width="10" stroke-opacity="1" stroke-miterlimit="4"/><path stroke-linecap="butt" transform="matrix(1.760917, 0, 0, 1.760917, 38.820299, 245.137791)" fill="none" stroke-linejoin="miter" d="M 0.00000789884 4.999449 L 84.433114 4.999449 " stroke="#ffffff" stroke-width="10" stroke-opacity="1" stroke-miterlimit="4"/><path stroke-linecap="butt" transform="matrix(0, 1.760917, -1.760917, 0, 56.420439, 112.262073)" fill="none" stroke-linejoin="miter" d="M -0.000201417 4.999243 L 82.463051 4.999243 " stroke="#ffffff" stroke-width="10" stroke-opacity="1" stroke-miterlimit="4"/></svg>